%TF.GenerationSoftware,KiCad,Pcbnew,9.0.2*%
%TF.CreationDate,2025-07-04T18:20:36-07:00*%
%TF.ProjectId,hestia-pathfinder,68657374-6961-42d7-9061-746866696e64,rev?*%
%TF.SameCoordinates,Original*%
%TF.FileFunction,Soldermask,Top*%
%TF.FilePolarity,Negative*%
%FSLAX46Y46*%
G04 Gerber Fmt 4.6, Leading zero omitted, Abs format (unit mm)*
G04 Created by KiCad (PCBNEW 9.0.2) date 2025-07-04 18:20:36*
%MOMM*%
%LPD*%
G01*
G04 APERTURE LIST*
G04 Aperture macros list*
%AMRoundRect*
0 Rectangle with rounded corners*
0 $1 Rounding radius*
0 $2 $3 $4 $5 $6 $7 $8 $9 X,Y pos of 4 corners*
0 Add a 4 corners polygon primitive as box body*
4,1,4,$2,$3,$4,$5,$6,$7,$8,$9,$2,$3,0*
0 Add four circle primitives for the rounded corners*
1,1,$1+$1,$2,$3*
1,1,$1+$1,$4,$5*
1,1,$1+$1,$6,$7*
1,1,$1+$1,$8,$9*
0 Add four rect primitives between the rounded corners*
20,1,$1+$1,$2,$3,$4,$5,0*
20,1,$1+$1,$4,$5,$6,$7,0*
20,1,$1+$1,$6,$7,$8,$9,0*
20,1,$1+$1,$8,$9,$2,$3,0*%
G04 Aperture macros list end*
%ADD10C,2.019000*%
%ADD11RoundRect,0.102000X-0.907500X-0.907500X0.907500X-0.907500X0.907500X0.907500X-0.907500X0.907500X0*%
%ADD12C,1.400000*%
%ADD13C,1.700000*%
%ADD14C,4.000000*%
%ADD15C,2.200000*%
%ADD16RoundRect,0.152400X-0.609600X1.063600X-0.609600X-1.063600X0.609600X-1.063600X0.609600X1.063600X0*%
%ADD17C,1.524000*%
%ADD18RoundRect,0.152400X0.609600X-1.063600X0.609600X1.063600X-0.609600X1.063600X-0.609600X-1.063600X0*%
G04 APERTURE END LIST*
D10*
%TO.C,D4*%
X166670000Y-115000000D03*
D11*
X164130000Y-115000000D03*
%TD*%
D12*
%TO.C,R3*%
X150600000Y-117540000D03*
X150600000Y-112460000D03*
%TD*%
D13*
%TO.C,SW2*%
X124880000Y-129080000D03*
D14*
X129960000Y-129080000D03*
D13*
X135040000Y-129080000D03*
D15*
X132500000Y-124000000D03*
X126150000Y-126540000D03*
%TD*%
D12*
%TO.C,R5*%
X189600000Y-117540000D03*
X189600000Y-112460000D03*
%TD*%
D10*
%TO.C,D2*%
X129400000Y-115000000D03*
D11*
X126860000Y-115000000D03*
%TD*%
D13*
%TO.C,SW1*%
X105620000Y-129100000D03*
D14*
X110700000Y-129100000D03*
D13*
X115780000Y-129100000D03*
D15*
X113240000Y-124020000D03*
X106890000Y-126560000D03*
%TD*%
D13*
%TO.C,SW4*%
X163430000Y-129100000D03*
D14*
X168510000Y-129100000D03*
D13*
X173590000Y-129100000D03*
D15*
X171050000Y-124020000D03*
X164700000Y-126560000D03*
%TD*%
D10*
%TO.C,D3*%
X146900000Y-115000000D03*
D11*
X144360000Y-115000000D03*
%TD*%
D12*
%TO.C,R2*%
X133600000Y-117540000D03*
X133600000Y-112460000D03*
%TD*%
D10*
%TO.C,D5*%
X184900000Y-115000000D03*
D11*
X182360000Y-115000000D03*
%TD*%
D13*
%TO.C,SW5*%
X182700000Y-129100000D03*
D14*
X187780000Y-129100000D03*
D13*
X192860000Y-129100000D03*
D15*
X190320000Y-124020000D03*
X183970000Y-126560000D03*
%TD*%
D12*
%TO.C,R1*%
X114300000Y-112660000D03*
X114300000Y-117740000D03*
%TD*%
D16*
%TO.C,U1*%
X103680000Y-108355000D03*
D17*
X103680000Y-107520000D03*
D16*
X106220000Y-108355000D03*
D17*
X106220000Y-107520000D03*
D16*
X108760000Y-108355000D03*
D17*
X108760000Y-107520000D03*
D16*
X111300000Y-108355000D03*
D17*
X111300000Y-107520000D03*
D16*
X113840000Y-108355000D03*
D17*
X113840000Y-107520000D03*
D16*
X116380000Y-108355000D03*
D17*
X116380000Y-107520000D03*
D16*
X118920000Y-108355000D03*
D17*
X118920000Y-107520000D03*
X118920000Y-92280000D03*
D18*
X118920000Y-91445000D03*
D17*
X116380000Y-92280000D03*
D18*
X116380000Y-91445000D03*
D17*
X113840000Y-92280000D03*
D18*
X113840000Y-91445000D03*
D17*
X111300000Y-92280000D03*
D18*
X111300000Y-91445000D03*
D17*
X108760000Y-92280000D03*
D18*
X108760000Y-91445000D03*
D17*
X106220000Y-92280000D03*
D18*
X106220000Y-91445000D03*
D17*
X103680000Y-92280000D03*
D18*
X103680000Y-91445000D03*
%TD*%
D10*
%TO.C,D1*%
X110900000Y-115000000D03*
D11*
X108360000Y-115000000D03*
%TD*%
D13*
%TO.C,SW3*%
X144180000Y-129080000D03*
D14*
X149260000Y-129080000D03*
D13*
X154340000Y-129080000D03*
D15*
X151800000Y-124000000D03*
X145450000Y-126540000D03*
%TD*%
D12*
%TO.C,R4*%
X170600000Y-117540000D03*
X170600000Y-112460000D03*
%TD*%
M02*
