%TF.GenerationSoftware,KiCad,Pcbnew,9.0.2*%
%TF.CreationDate,2025-07-04T18:20:36-07:00*%
%TF.ProjectId,hestia-pathfinder,68657374-6961-42d7-9061-746866696e64,rev?*%
%TF.SameCoordinates,Original*%
%TF.FileFunction,Copper,L2,Bot*%
%TF.FilePolarity,Positive*%
%FSLAX46Y46*%
G04 Gerber Fmt 4.6, Leading zero omitted, Abs format (unit mm)*
G04 Created by KiCad (PCBNEW 9.0.2) date 2025-07-04 18:20:36*
%MOMM*%
%LPD*%
G01*
G04 APERTURE LIST*
%TA.AperFunction,ComponentPad*%
%ADD10C,1.815000*%
%TD*%
%TA.AperFunction,ComponentPad*%
%ADD11R,1.815000X1.815000*%
%TD*%
%TA.AperFunction,ComponentPad*%
%ADD12C,1.400000*%
%TD*%
%TA.AperFunction,ComponentPad*%
%ADD13C,2.200000*%
%TD*%
%TA.AperFunction,ComponentPad*%
%ADD14C,1.524000*%
%TD*%
%TA.AperFunction,Conductor*%
%ADD15C,0.200000*%
%TD*%
G04 APERTURE END LIST*
D10*
%TO.P,D4,A*%
%TO.N,Net-(D4-PadA)*%
X166670000Y-115000000D03*
D11*
%TO.P,D4,C*%
%TO.N,GND*%
X164130000Y-115000000D03*
%TD*%
D12*
%TO.P,R3,1*%
%TO.N,Net-(D3-PadA)*%
X150600000Y-117540000D03*
%TO.P,R3,2*%
%TO.N,LED3*%
X150600000Y-112460000D03*
%TD*%
D13*
%TO.P,SW2,1,1*%
%TO.N,button2*%
X132500000Y-124000000D03*
%TO.P,SW2,2,2*%
%TO.N,GND*%
X126150000Y-126540000D03*
%TD*%
D12*
%TO.P,R5,1*%
%TO.N,Net-(D5-PadA)*%
X189600000Y-117540000D03*
%TO.P,R5,2*%
%TO.N,LED5*%
X189600000Y-112460000D03*
%TD*%
D10*
%TO.P,D2,A*%
%TO.N,Net-(D2-PadA)*%
X129400000Y-115000000D03*
D11*
%TO.P,D2,C*%
%TO.N,GND*%
X126860000Y-115000000D03*
%TD*%
D13*
%TO.P,SW1,1,1*%
%TO.N,button1*%
X113240000Y-124020000D03*
%TO.P,SW1,2,2*%
%TO.N,GND*%
X106890000Y-126560000D03*
%TD*%
%TO.P,SW4,1,1*%
%TO.N,button4*%
X171050000Y-124020000D03*
%TO.P,SW4,2,2*%
%TO.N,GND*%
X164700000Y-126560000D03*
%TD*%
D10*
%TO.P,D3,A*%
%TO.N,Net-(D3-PadA)*%
X146900000Y-115000000D03*
D11*
%TO.P,D3,C*%
%TO.N,GND*%
X144360000Y-115000000D03*
%TD*%
D12*
%TO.P,R2,1*%
%TO.N,Net-(D2-PadA)*%
X133600000Y-117540000D03*
%TO.P,R2,2*%
%TO.N,LED2*%
X133600000Y-112460000D03*
%TD*%
D10*
%TO.P,D5,A*%
%TO.N,Net-(D5-PadA)*%
X184900000Y-115000000D03*
D11*
%TO.P,D5,C*%
%TO.N,GND*%
X182360000Y-115000000D03*
%TD*%
D13*
%TO.P,SW5,1,1*%
%TO.N,button5*%
X190320000Y-124020000D03*
%TO.P,SW5,2,2*%
%TO.N,GND*%
X183970000Y-126560000D03*
%TD*%
D12*
%TO.P,R1,1*%
%TO.N,Net-(D1-PadA)*%
X114300000Y-112660000D03*
%TO.P,R1,2*%
%TO.N,LED1*%
X114300000Y-117740000D03*
%TD*%
D14*
%TO.P,U1,1,GPIO26/ADC0/A0*%
%TO.N,button1*%
X103680000Y-107520000D03*
%TO.P,U1,2,GPIO27/ADC1/A1*%
%TO.N,button2*%
X106220000Y-107520000D03*
%TO.P,U1,3,GPIO28/ADC2/A2*%
%TO.N,button3*%
X108760000Y-107520000D03*
%TO.P,U1,4,GPIO29/ADC3/A3*%
%TO.N,button4*%
X111300000Y-107520000D03*
%TO.P,U1,5,GPIO6/SDA*%
%TO.N,button5*%
X113840000Y-107520000D03*
%TO.P,U1,6,GPIO7/SCL*%
%TO.N,LED1*%
X116380000Y-107520000D03*
%TO.P,U1,7,GPIO0/TX*%
%TO.N,LED2*%
X118920000Y-107520000D03*
%TO.P,U1,8,GPIO1/RX*%
%TO.N,unconnected-(U1-GPIO1{slash}RX-Pad8)*%
X118920000Y-92280000D03*
%TO.P,U1,9,GPIO2/SCK*%
%TO.N,LED5*%
X116380000Y-92280000D03*
%TO.P,U1,10,GPIO4/MISO*%
%TO.N,LED4*%
X113840000Y-92280000D03*
%TO.P,U1,11,GPIO3/MOSI*%
%TO.N,LED3*%
X111300000Y-92280000D03*
%TO.P,U1,12,3V3*%
%TO.N,unconnected-(U1-3V3-Pad12)*%
X108760000Y-92280000D03*
%TO.P,U1,13,GND*%
%TO.N,GND*%
X106220000Y-92280000D03*
%TO.P,U1,14,VBUS*%
%TO.N,unconnected-(U1-VBUS-Pad14)*%
X103680000Y-92280000D03*
%TD*%
D10*
%TO.P,D1,A*%
%TO.N,Net-(D1-PadA)*%
X110900000Y-115000000D03*
D11*
%TO.P,D1,C*%
%TO.N,GND*%
X108360000Y-115000000D03*
%TD*%
D13*
%TO.P,SW3,1,1*%
%TO.N,button3*%
X151800000Y-124000000D03*
%TO.P,SW3,2,2*%
%TO.N,GND*%
X145450000Y-126540000D03*
%TD*%
D12*
%TO.P,R4,1*%
%TO.N,Net-(D4-PadA)*%
X170600000Y-117540000D03*
%TO.P,R4,2*%
%TO.N,LED4*%
X170600000Y-112460000D03*
%TD*%
D15*
%TO.N,button2*%
X122700000Y-124000000D02*
X106220000Y-107520000D01*
X132500000Y-124000000D02*
X122700000Y-124000000D01*
%TO.N,button3*%
X150399000Y-122599000D02*
X151800000Y-124000000D01*
X108760000Y-107520000D02*
X108760000Y-108535628D01*
X122823372Y-122599000D02*
X150399000Y-122599000D01*
X108760000Y-108535628D02*
X122823372Y-122599000D01*
%TO.N,button4*%
X169228000Y-122198000D02*
X171050000Y-124020000D01*
X111300000Y-107520000D02*
X125978000Y-122198000D01*
X125978000Y-122198000D02*
X169228000Y-122198000D01*
%TO.N,button5*%
X185700000Y-119400000D02*
X190320000Y-124020000D01*
X125720000Y-119400000D02*
X185700000Y-119400000D01*
X113840000Y-107520000D02*
X125720000Y-119400000D01*
%TD*%
M02*
