M48
; DRILL file {KiCad 9.0.2} date 2025-07-04T18:21:32-0700
; FORMAT={-:-/ absolute / metric / decimal}
; #@! TF.CreationDate,2025-07-04T18:21:32-07:00
; #@! TF.GenerationSoftware,Kicad,Pcbnew,9.0.2
; #@! TF.FileFunction,Plated,1,2,PTH
FMAT,2
METRIC
; #@! TA.AperFunction,Plated,PTH,ComponentDrill
T1C0.700
; #@! TA.AperFunction,Plated,PTH,ComponentDrill
T2C0.889
; #@! TA.AperFunction,Plated,PTH,ComponentDrill
T3C1.210
; #@! TA.AperFunction,Plated,PTH,ComponentDrill
T4C1.500
%
G90
G05
T1
X114.3Y-112.66
X114.3Y-117.74
X133.6Y-112.46
X133.6Y-117.54
X150.6Y-112.46
X150.6Y-117.54
X170.6Y-112.46
X170.6Y-117.54
X189.6Y-112.46
X189.6Y-117.54
T2
X103.68Y-92.28
X103.68Y-107.52
X106.22Y-92.28
X106.22Y-107.52
X108.76Y-92.28
X108.76Y-107.52
X111.3Y-92.28
X111.3Y-107.52
X113.84Y-92.28
X113.84Y-107.52
X116.38Y-92.28
X116.38Y-107.52
X118.92Y-92.28
X118.92Y-107.52
T3
X108.36Y-115.0
X110.9Y-115.0
X126.86Y-115.0
X129.4Y-115.0
X144.36Y-115.0
X146.9Y-115.0
X164.13Y-115.0
X166.67Y-115.0
X182.36Y-115.0
X184.9Y-115.0
T4
X106.89Y-126.56
X113.24Y-124.02
X126.15Y-126.54
X132.5Y-124.0
X145.45Y-126.54
X151.8Y-124.0
X164.7Y-126.56
X171.05Y-124.02
X183.97Y-126.56
X190.32Y-124.02
M30
