%TF.GenerationSoftware,KiCad,Pcbnew,9.0.2*%
%TF.CreationDate,2025-07-04T18:20:36-07:00*%
%TF.ProjectId,hestia-pathfinder,68657374-6961-42d7-9061-746866696e64,rev?*%
%TF.SameCoordinates,Original*%
%TF.FileFunction,Legend,Top*%
%TF.FilePolarity,Positive*%
%FSLAX46Y46*%
G04 Gerber Fmt 4.6, Leading zero omitted, Abs format (unit mm)*
G04 Created by KiCad (PCBNEW 9.0.2) date 2025-07-04 18:20:36*
%MOMM*%
%LPD*%
G01*
G04 APERTURE LIST*
%ADD10C,0.100000*%
%ADD11C,0.150000*%
%ADD12C,0.101600*%
%ADD13C,0.000000*%
%ADD14C,0.127000*%
%ADD15C,0.200000*%
%ADD16C,0.120000*%
%ADD17C,0.504000*%
G04 APERTURE END LIST*
D10*
X172103884Y-104872419D02*
X172103884Y-103872419D01*
X172103884Y-103872419D02*
X172437217Y-104586704D01*
X172437217Y-104586704D02*
X172770550Y-103872419D01*
X172770550Y-103872419D02*
X172770550Y-104872419D01*
X173675312Y-104872419D02*
X173675312Y-104348609D01*
X173675312Y-104348609D02*
X173627693Y-104253371D01*
X173627693Y-104253371D02*
X173532455Y-104205752D01*
X173532455Y-104205752D02*
X173341979Y-104205752D01*
X173341979Y-104205752D02*
X173246741Y-104253371D01*
X173675312Y-104824800D02*
X173580074Y-104872419D01*
X173580074Y-104872419D02*
X173341979Y-104872419D01*
X173341979Y-104872419D02*
X173246741Y-104824800D01*
X173246741Y-104824800D02*
X173199122Y-104729561D01*
X173199122Y-104729561D02*
X173199122Y-104634323D01*
X173199122Y-104634323D02*
X173246741Y-104539085D01*
X173246741Y-104539085D02*
X173341979Y-104491466D01*
X173341979Y-104491466D02*
X173580074Y-104491466D01*
X173580074Y-104491466D02*
X173675312Y-104443847D01*
X174580074Y-104872419D02*
X174580074Y-103872419D01*
X174580074Y-104824800D02*
X174484836Y-104872419D01*
X174484836Y-104872419D02*
X174294360Y-104872419D01*
X174294360Y-104872419D02*
X174199122Y-104824800D01*
X174199122Y-104824800D02*
X174151503Y-104777180D01*
X174151503Y-104777180D02*
X174103884Y-104681942D01*
X174103884Y-104681942D02*
X174103884Y-104396228D01*
X174103884Y-104396228D02*
X174151503Y-104300990D01*
X174151503Y-104300990D02*
X174199122Y-104253371D01*
X174199122Y-104253371D02*
X174294360Y-104205752D01*
X174294360Y-104205752D02*
X174484836Y-104205752D01*
X174484836Y-104205752D02*
X174580074Y-104253371D01*
X175437217Y-104824800D02*
X175341979Y-104872419D01*
X175341979Y-104872419D02*
X175151503Y-104872419D01*
X175151503Y-104872419D02*
X175056265Y-104824800D01*
X175056265Y-104824800D02*
X175008646Y-104729561D01*
X175008646Y-104729561D02*
X175008646Y-104348609D01*
X175008646Y-104348609D02*
X175056265Y-104253371D01*
X175056265Y-104253371D02*
X175151503Y-104205752D01*
X175151503Y-104205752D02*
X175341979Y-104205752D01*
X175341979Y-104205752D02*
X175437217Y-104253371D01*
X175437217Y-104253371D02*
X175484836Y-104348609D01*
X175484836Y-104348609D02*
X175484836Y-104443847D01*
X175484836Y-104443847D02*
X175008646Y-104539085D01*
X176532456Y-104205752D02*
X176913408Y-104205752D01*
X176675313Y-104872419D02*
X176675313Y-104015276D01*
X176675313Y-104015276D02*
X176722932Y-103920038D01*
X176722932Y-103920038D02*
X176818170Y-103872419D01*
X176818170Y-103872419D02*
X176913408Y-103872419D01*
X177389599Y-104872419D02*
X177294361Y-104824800D01*
X177294361Y-104824800D02*
X177246742Y-104777180D01*
X177246742Y-104777180D02*
X177199123Y-104681942D01*
X177199123Y-104681942D02*
X177199123Y-104396228D01*
X177199123Y-104396228D02*
X177246742Y-104300990D01*
X177246742Y-104300990D02*
X177294361Y-104253371D01*
X177294361Y-104253371D02*
X177389599Y-104205752D01*
X177389599Y-104205752D02*
X177532456Y-104205752D01*
X177532456Y-104205752D02*
X177627694Y-104253371D01*
X177627694Y-104253371D02*
X177675313Y-104300990D01*
X177675313Y-104300990D02*
X177722932Y-104396228D01*
X177722932Y-104396228D02*
X177722932Y-104681942D01*
X177722932Y-104681942D02*
X177675313Y-104777180D01*
X177675313Y-104777180D02*
X177627694Y-104824800D01*
X177627694Y-104824800D02*
X177532456Y-104872419D01*
X177532456Y-104872419D02*
X177389599Y-104872419D01*
X178151504Y-104872419D02*
X178151504Y-104205752D01*
X178151504Y-104396228D02*
X178199123Y-104300990D01*
X178199123Y-104300990D02*
X178246742Y-104253371D01*
X178246742Y-104253371D02*
X178341980Y-104205752D01*
X178341980Y-104205752D02*
X178437218Y-104205752D01*
X179532457Y-104872419D02*
X179532457Y-103872419D01*
X179532457Y-103872419D02*
X179913409Y-103872419D01*
X179913409Y-103872419D02*
X180008647Y-103920038D01*
X180008647Y-103920038D02*
X180056266Y-103967657D01*
X180056266Y-103967657D02*
X180103885Y-104062895D01*
X180103885Y-104062895D02*
X180103885Y-104205752D01*
X180103885Y-104205752D02*
X180056266Y-104300990D01*
X180056266Y-104300990D02*
X180008647Y-104348609D01*
X180008647Y-104348609D02*
X179913409Y-104396228D01*
X179913409Y-104396228D02*
X179532457Y-104396228D01*
X180961028Y-104872419D02*
X180961028Y-104348609D01*
X180961028Y-104348609D02*
X180913409Y-104253371D01*
X180913409Y-104253371D02*
X180818171Y-104205752D01*
X180818171Y-104205752D02*
X180627695Y-104205752D01*
X180627695Y-104205752D02*
X180532457Y-104253371D01*
X180961028Y-104824800D02*
X180865790Y-104872419D01*
X180865790Y-104872419D02*
X180627695Y-104872419D01*
X180627695Y-104872419D02*
X180532457Y-104824800D01*
X180532457Y-104824800D02*
X180484838Y-104729561D01*
X180484838Y-104729561D02*
X180484838Y-104634323D01*
X180484838Y-104634323D02*
X180532457Y-104539085D01*
X180532457Y-104539085D02*
X180627695Y-104491466D01*
X180627695Y-104491466D02*
X180865790Y-104491466D01*
X180865790Y-104491466D02*
X180961028Y-104443847D01*
X181294362Y-104205752D02*
X181675314Y-104205752D01*
X181437219Y-103872419D02*
X181437219Y-104729561D01*
X181437219Y-104729561D02*
X181484838Y-104824800D01*
X181484838Y-104824800D02*
X181580076Y-104872419D01*
X181580076Y-104872419D02*
X181675314Y-104872419D01*
X182008648Y-104872419D02*
X182008648Y-103872419D01*
X182437219Y-104872419D02*
X182437219Y-104348609D01*
X182437219Y-104348609D02*
X182389600Y-104253371D01*
X182389600Y-104253371D02*
X182294362Y-104205752D01*
X182294362Y-104205752D02*
X182151505Y-104205752D01*
X182151505Y-104205752D02*
X182056267Y-104253371D01*
X182056267Y-104253371D02*
X182008648Y-104300990D01*
X182770553Y-104205752D02*
X183151505Y-104205752D01*
X182913410Y-104872419D02*
X182913410Y-104015276D01*
X182913410Y-104015276D02*
X182961029Y-103920038D01*
X182961029Y-103920038D02*
X183056267Y-103872419D01*
X183056267Y-103872419D02*
X183151505Y-103872419D01*
X183484839Y-104872419D02*
X183484839Y-104205752D01*
X183484839Y-103872419D02*
X183437220Y-103920038D01*
X183437220Y-103920038D02*
X183484839Y-103967657D01*
X183484839Y-103967657D02*
X183532458Y-103920038D01*
X183532458Y-103920038D02*
X183484839Y-103872419D01*
X183484839Y-103872419D02*
X183484839Y-103967657D01*
X183961029Y-104205752D02*
X183961029Y-104872419D01*
X183961029Y-104300990D02*
X184008648Y-104253371D01*
X184008648Y-104253371D02*
X184103886Y-104205752D01*
X184103886Y-104205752D02*
X184246743Y-104205752D01*
X184246743Y-104205752D02*
X184341981Y-104253371D01*
X184341981Y-104253371D02*
X184389600Y-104348609D01*
X184389600Y-104348609D02*
X184389600Y-104872419D01*
X185294362Y-104872419D02*
X185294362Y-103872419D01*
X185294362Y-104824800D02*
X185199124Y-104872419D01*
X185199124Y-104872419D02*
X185008648Y-104872419D01*
X185008648Y-104872419D02*
X184913410Y-104824800D01*
X184913410Y-104824800D02*
X184865791Y-104777180D01*
X184865791Y-104777180D02*
X184818172Y-104681942D01*
X184818172Y-104681942D02*
X184818172Y-104396228D01*
X184818172Y-104396228D02*
X184865791Y-104300990D01*
X184865791Y-104300990D02*
X184913410Y-104253371D01*
X184913410Y-104253371D02*
X185008648Y-104205752D01*
X185008648Y-104205752D02*
X185199124Y-104205752D01*
X185199124Y-104205752D02*
X185294362Y-104253371D01*
X186151505Y-104824800D02*
X186056267Y-104872419D01*
X186056267Y-104872419D02*
X185865791Y-104872419D01*
X185865791Y-104872419D02*
X185770553Y-104824800D01*
X185770553Y-104824800D02*
X185722934Y-104729561D01*
X185722934Y-104729561D02*
X185722934Y-104348609D01*
X185722934Y-104348609D02*
X185770553Y-104253371D01*
X185770553Y-104253371D02*
X185865791Y-104205752D01*
X185865791Y-104205752D02*
X186056267Y-104205752D01*
X186056267Y-104205752D02*
X186151505Y-104253371D01*
X186151505Y-104253371D02*
X186199124Y-104348609D01*
X186199124Y-104348609D02*
X186199124Y-104443847D01*
X186199124Y-104443847D02*
X185722934Y-104539085D01*
X186627696Y-104872419D02*
X186627696Y-104205752D01*
X186627696Y-104396228D02*
X186675315Y-104300990D01*
X186675315Y-104300990D02*
X186722934Y-104253371D01*
X186722934Y-104253371D02*
X186818172Y-104205752D01*
X186818172Y-104205752D02*
X186913410Y-104205752D01*
X151656265Y-104724800D02*
X151799122Y-104772419D01*
X151799122Y-104772419D02*
X152037217Y-104772419D01*
X152037217Y-104772419D02*
X152132455Y-104724800D01*
X152132455Y-104724800D02*
X152180074Y-104677180D01*
X152180074Y-104677180D02*
X152227693Y-104581942D01*
X152227693Y-104581942D02*
X152227693Y-104486704D01*
X152227693Y-104486704D02*
X152180074Y-104391466D01*
X152180074Y-104391466D02*
X152132455Y-104343847D01*
X152132455Y-104343847D02*
X152037217Y-104296228D01*
X152037217Y-104296228D02*
X151846741Y-104248609D01*
X151846741Y-104248609D02*
X151751503Y-104200990D01*
X151751503Y-104200990D02*
X151703884Y-104153371D01*
X151703884Y-104153371D02*
X151656265Y-104058133D01*
X151656265Y-104058133D02*
X151656265Y-103962895D01*
X151656265Y-103962895D02*
X151703884Y-103867657D01*
X151703884Y-103867657D02*
X151751503Y-103820038D01*
X151751503Y-103820038D02*
X151846741Y-103772419D01*
X151846741Y-103772419D02*
X152084836Y-103772419D01*
X152084836Y-103772419D02*
X152227693Y-103820038D01*
X152656265Y-104772419D02*
X152656265Y-104105752D01*
X152656265Y-103772419D02*
X152608646Y-103820038D01*
X152608646Y-103820038D02*
X152656265Y-103867657D01*
X152656265Y-103867657D02*
X152703884Y-103820038D01*
X152703884Y-103820038D02*
X152656265Y-103772419D01*
X152656265Y-103772419D02*
X152656265Y-103867657D01*
X153132455Y-104772419D02*
X153132455Y-104105752D01*
X153132455Y-104200990D02*
X153180074Y-104153371D01*
X153180074Y-104153371D02*
X153275312Y-104105752D01*
X153275312Y-104105752D02*
X153418169Y-104105752D01*
X153418169Y-104105752D02*
X153513407Y-104153371D01*
X153513407Y-104153371D02*
X153561026Y-104248609D01*
X153561026Y-104248609D02*
X153561026Y-104772419D01*
X153561026Y-104248609D02*
X153608645Y-104153371D01*
X153608645Y-104153371D02*
X153703883Y-104105752D01*
X153703883Y-104105752D02*
X153846740Y-104105752D01*
X153846740Y-104105752D02*
X153941979Y-104153371D01*
X153941979Y-104153371D02*
X153989598Y-104248609D01*
X153989598Y-104248609D02*
X153989598Y-104772419D01*
X154608645Y-104772419D02*
X154513407Y-104724800D01*
X154513407Y-104724800D02*
X154465788Y-104677180D01*
X154465788Y-104677180D02*
X154418169Y-104581942D01*
X154418169Y-104581942D02*
X154418169Y-104296228D01*
X154418169Y-104296228D02*
X154465788Y-104200990D01*
X154465788Y-104200990D02*
X154513407Y-104153371D01*
X154513407Y-104153371D02*
X154608645Y-104105752D01*
X154608645Y-104105752D02*
X154751502Y-104105752D01*
X154751502Y-104105752D02*
X154846740Y-104153371D01*
X154846740Y-104153371D02*
X154894359Y-104200990D01*
X154894359Y-104200990D02*
X154941978Y-104296228D01*
X154941978Y-104296228D02*
X154941978Y-104581942D01*
X154941978Y-104581942D02*
X154894359Y-104677180D01*
X154894359Y-104677180D02*
X154846740Y-104724800D01*
X154846740Y-104724800D02*
X154751502Y-104772419D01*
X154751502Y-104772419D02*
X154608645Y-104772419D01*
X155370550Y-104105752D02*
X155370550Y-104772419D01*
X155370550Y-104200990D02*
X155418169Y-104153371D01*
X155418169Y-104153371D02*
X155513407Y-104105752D01*
X155513407Y-104105752D02*
X155656264Y-104105752D01*
X155656264Y-104105752D02*
X155751502Y-104153371D01*
X155751502Y-104153371D02*
X155799121Y-104248609D01*
X155799121Y-104248609D02*
X155799121Y-104772419D01*
X157370550Y-104248609D02*
X157513407Y-104296228D01*
X157513407Y-104296228D02*
X157561026Y-104343847D01*
X157561026Y-104343847D02*
X157608645Y-104439085D01*
X157608645Y-104439085D02*
X157608645Y-104581942D01*
X157608645Y-104581942D02*
X157561026Y-104677180D01*
X157561026Y-104677180D02*
X157513407Y-104724800D01*
X157513407Y-104724800D02*
X157418169Y-104772419D01*
X157418169Y-104772419D02*
X157037217Y-104772419D01*
X157037217Y-104772419D02*
X157037217Y-103772419D01*
X157037217Y-103772419D02*
X157370550Y-103772419D01*
X157370550Y-103772419D02*
X157465788Y-103820038D01*
X157465788Y-103820038D02*
X157513407Y-103867657D01*
X157513407Y-103867657D02*
X157561026Y-103962895D01*
X157561026Y-103962895D02*
X157561026Y-104058133D01*
X157561026Y-104058133D02*
X157513407Y-104153371D01*
X157513407Y-104153371D02*
X157465788Y-104200990D01*
X157465788Y-104200990D02*
X157370550Y-104248609D01*
X157370550Y-104248609D02*
X157037217Y-104248609D01*
X158180074Y-104772419D02*
X158084836Y-104724800D01*
X158084836Y-104724800D02*
X158037217Y-104629561D01*
X158037217Y-104629561D02*
X158037217Y-103772419D01*
X158561027Y-104772419D02*
X158561027Y-104105752D01*
X158561027Y-103772419D02*
X158513408Y-103820038D01*
X158513408Y-103820038D02*
X158561027Y-103867657D01*
X158561027Y-103867657D02*
X158608646Y-103820038D01*
X158608646Y-103820038D02*
X158561027Y-103772419D01*
X158561027Y-103772419D02*
X158561027Y-103867657D01*
X159037217Y-104105752D02*
X159037217Y-104772419D01*
X159037217Y-104200990D02*
X159084836Y-104153371D01*
X159084836Y-104153371D02*
X159180074Y-104105752D01*
X159180074Y-104105752D02*
X159322931Y-104105752D01*
X159322931Y-104105752D02*
X159418169Y-104153371D01*
X159418169Y-104153371D02*
X159465788Y-104248609D01*
X159465788Y-104248609D02*
X159465788Y-104772419D01*
X159941979Y-104772419D02*
X159941979Y-103772419D01*
X160037217Y-104391466D02*
X160322931Y-104772419D01*
X160322931Y-104105752D02*
X159941979Y-104486704D01*
X160703884Y-104724800D02*
X160799122Y-104772419D01*
X160799122Y-104772419D02*
X160989598Y-104772419D01*
X160989598Y-104772419D02*
X161084836Y-104724800D01*
X161084836Y-104724800D02*
X161132455Y-104629561D01*
X161132455Y-104629561D02*
X161132455Y-104581942D01*
X161132455Y-104581942D02*
X161084836Y-104486704D01*
X161084836Y-104486704D02*
X160989598Y-104439085D01*
X160989598Y-104439085D02*
X160846741Y-104439085D01*
X160846741Y-104439085D02*
X160751503Y-104391466D01*
X160751503Y-104391466D02*
X160703884Y-104296228D01*
X160703884Y-104296228D02*
X160703884Y-104248609D01*
X160703884Y-104248609D02*
X160751503Y-104153371D01*
X160751503Y-104153371D02*
X160846741Y-104105752D01*
X160846741Y-104105752D02*
X160989598Y-104105752D01*
X160989598Y-104105752D02*
X161084836Y-104153371D01*
D11*
X164849524Y-111654295D02*
X164849524Y-110854295D01*
X164849524Y-110854295D02*
X165040000Y-110854295D01*
X165040000Y-110854295D02*
X165154286Y-110892390D01*
X165154286Y-110892390D02*
X165230476Y-110968580D01*
X165230476Y-110968580D02*
X165268571Y-111044771D01*
X165268571Y-111044771D02*
X165306667Y-111197152D01*
X165306667Y-111197152D02*
X165306667Y-111311438D01*
X165306667Y-111311438D02*
X165268571Y-111463819D01*
X165268571Y-111463819D02*
X165230476Y-111540009D01*
X165230476Y-111540009D02*
X165154286Y-111616200D01*
X165154286Y-111616200D02*
X165040000Y-111654295D01*
X165040000Y-111654295D02*
X164849524Y-111654295D01*
X165992381Y-111120961D02*
X165992381Y-111654295D01*
X165801905Y-110816200D02*
X165611428Y-111387628D01*
X165611428Y-111387628D02*
X166106667Y-111387628D01*
X149134819Y-115266667D02*
X148658628Y-115600000D01*
X149134819Y-115838095D02*
X148134819Y-115838095D01*
X148134819Y-115838095D02*
X148134819Y-115457143D01*
X148134819Y-115457143D02*
X148182438Y-115361905D01*
X148182438Y-115361905D02*
X148230057Y-115314286D01*
X148230057Y-115314286D02*
X148325295Y-115266667D01*
X148325295Y-115266667D02*
X148468152Y-115266667D01*
X148468152Y-115266667D02*
X148563390Y-115314286D01*
X148563390Y-115314286D02*
X148611009Y-115361905D01*
X148611009Y-115361905D02*
X148658628Y-115457143D01*
X148658628Y-115457143D02*
X148658628Y-115838095D01*
X148134819Y-114933333D02*
X148134819Y-114314286D01*
X148134819Y-114314286D02*
X148515771Y-114647619D01*
X148515771Y-114647619D02*
X148515771Y-114504762D01*
X148515771Y-114504762D02*
X148563390Y-114409524D01*
X148563390Y-114409524D02*
X148611009Y-114361905D01*
X148611009Y-114361905D02*
X148706247Y-114314286D01*
X148706247Y-114314286D02*
X148944342Y-114314286D01*
X148944342Y-114314286D02*
X149039580Y-114361905D01*
X149039580Y-114361905D02*
X149087200Y-114409524D01*
X149087200Y-114409524D02*
X149134819Y-114504762D01*
X149134819Y-114504762D02*
X149134819Y-114790476D01*
X149134819Y-114790476D02*
X149087200Y-114885714D01*
X149087200Y-114885714D02*
X149039580Y-114933333D01*
X128626667Y-121613200D02*
X128769524Y-121660819D01*
X128769524Y-121660819D02*
X129007619Y-121660819D01*
X129007619Y-121660819D02*
X129102857Y-121613200D01*
X129102857Y-121613200D02*
X129150476Y-121565580D01*
X129150476Y-121565580D02*
X129198095Y-121470342D01*
X129198095Y-121470342D02*
X129198095Y-121375104D01*
X129198095Y-121375104D02*
X129150476Y-121279866D01*
X129150476Y-121279866D02*
X129102857Y-121232247D01*
X129102857Y-121232247D02*
X129007619Y-121184628D01*
X129007619Y-121184628D02*
X128817143Y-121137009D01*
X128817143Y-121137009D02*
X128721905Y-121089390D01*
X128721905Y-121089390D02*
X128674286Y-121041771D01*
X128674286Y-121041771D02*
X128626667Y-120946533D01*
X128626667Y-120946533D02*
X128626667Y-120851295D01*
X128626667Y-120851295D02*
X128674286Y-120756057D01*
X128674286Y-120756057D02*
X128721905Y-120708438D01*
X128721905Y-120708438D02*
X128817143Y-120660819D01*
X128817143Y-120660819D02*
X129055238Y-120660819D01*
X129055238Y-120660819D02*
X129198095Y-120708438D01*
X129531429Y-120660819D02*
X129769524Y-121660819D01*
X129769524Y-121660819D02*
X129960000Y-120946533D01*
X129960000Y-120946533D02*
X130150476Y-121660819D01*
X130150476Y-121660819D02*
X130388572Y-120660819D01*
X130721905Y-120756057D02*
X130769524Y-120708438D01*
X130769524Y-120708438D02*
X130864762Y-120660819D01*
X130864762Y-120660819D02*
X131102857Y-120660819D01*
X131102857Y-120660819D02*
X131198095Y-120708438D01*
X131198095Y-120708438D02*
X131245714Y-120756057D01*
X131245714Y-120756057D02*
X131293333Y-120851295D01*
X131293333Y-120851295D02*
X131293333Y-120946533D01*
X131293333Y-120946533D02*
X131245714Y-121089390D01*
X131245714Y-121089390D02*
X130674286Y-121660819D01*
X130674286Y-121660819D02*
X131293333Y-121660819D01*
X188134819Y-115166666D02*
X187658628Y-115499999D01*
X188134819Y-115738094D02*
X187134819Y-115738094D01*
X187134819Y-115738094D02*
X187134819Y-115357142D01*
X187134819Y-115357142D02*
X187182438Y-115261904D01*
X187182438Y-115261904D02*
X187230057Y-115214285D01*
X187230057Y-115214285D02*
X187325295Y-115166666D01*
X187325295Y-115166666D02*
X187468152Y-115166666D01*
X187468152Y-115166666D02*
X187563390Y-115214285D01*
X187563390Y-115214285D02*
X187611009Y-115261904D01*
X187611009Y-115261904D02*
X187658628Y-115357142D01*
X187658628Y-115357142D02*
X187658628Y-115738094D01*
X187134819Y-114261904D02*
X187134819Y-114738094D01*
X187134819Y-114738094D02*
X187611009Y-114785713D01*
X187611009Y-114785713D02*
X187563390Y-114738094D01*
X187563390Y-114738094D02*
X187515771Y-114642856D01*
X187515771Y-114642856D02*
X187515771Y-114404761D01*
X187515771Y-114404761D02*
X187563390Y-114309523D01*
X187563390Y-114309523D02*
X187611009Y-114261904D01*
X187611009Y-114261904D02*
X187706247Y-114214285D01*
X187706247Y-114214285D02*
X187944342Y-114214285D01*
X187944342Y-114214285D02*
X188039580Y-114261904D01*
X188039580Y-114261904D02*
X188087200Y-114309523D01*
X188087200Y-114309523D02*
X188134819Y-114404761D01*
X188134819Y-114404761D02*
X188134819Y-114642856D01*
X188134819Y-114642856D02*
X188087200Y-114738094D01*
X188087200Y-114738094D02*
X188039580Y-114785713D01*
X127579524Y-110962295D02*
X127579524Y-110162295D01*
X127579524Y-110162295D02*
X127770000Y-110162295D01*
X127770000Y-110162295D02*
X127884286Y-110200390D01*
X127884286Y-110200390D02*
X127960476Y-110276580D01*
X127960476Y-110276580D02*
X127998571Y-110352771D01*
X127998571Y-110352771D02*
X128036667Y-110505152D01*
X128036667Y-110505152D02*
X128036667Y-110619438D01*
X128036667Y-110619438D02*
X127998571Y-110771819D01*
X127998571Y-110771819D02*
X127960476Y-110848009D01*
X127960476Y-110848009D02*
X127884286Y-110924200D01*
X127884286Y-110924200D02*
X127770000Y-110962295D01*
X127770000Y-110962295D02*
X127579524Y-110962295D01*
X128341428Y-110238485D02*
X128379524Y-110200390D01*
X128379524Y-110200390D02*
X128455714Y-110162295D01*
X128455714Y-110162295D02*
X128646190Y-110162295D01*
X128646190Y-110162295D02*
X128722381Y-110200390D01*
X128722381Y-110200390D02*
X128760476Y-110238485D01*
X128760476Y-110238485D02*
X128798571Y-110314676D01*
X128798571Y-110314676D02*
X128798571Y-110390866D01*
X128798571Y-110390866D02*
X128760476Y-110505152D01*
X128760476Y-110505152D02*
X128303333Y-110962295D01*
X128303333Y-110962295D02*
X128798571Y-110962295D01*
X109366667Y-121633200D02*
X109509524Y-121680819D01*
X109509524Y-121680819D02*
X109747619Y-121680819D01*
X109747619Y-121680819D02*
X109842857Y-121633200D01*
X109842857Y-121633200D02*
X109890476Y-121585580D01*
X109890476Y-121585580D02*
X109938095Y-121490342D01*
X109938095Y-121490342D02*
X109938095Y-121395104D01*
X109938095Y-121395104D02*
X109890476Y-121299866D01*
X109890476Y-121299866D02*
X109842857Y-121252247D01*
X109842857Y-121252247D02*
X109747619Y-121204628D01*
X109747619Y-121204628D02*
X109557143Y-121157009D01*
X109557143Y-121157009D02*
X109461905Y-121109390D01*
X109461905Y-121109390D02*
X109414286Y-121061771D01*
X109414286Y-121061771D02*
X109366667Y-120966533D01*
X109366667Y-120966533D02*
X109366667Y-120871295D01*
X109366667Y-120871295D02*
X109414286Y-120776057D01*
X109414286Y-120776057D02*
X109461905Y-120728438D01*
X109461905Y-120728438D02*
X109557143Y-120680819D01*
X109557143Y-120680819D02*
X109795238Y-120680819D01*
X109795238Y-120680819D02*
X109938095Y-120728438D01*
X110271429Y-120680819D02*
X110509524Y-121680819D01*
X110509524Y-121680819D02*
X110700000Y-120966533D01*
X110700000Y-120966533D02*
X110890476Y-121680819D01*
X110890476Y-121680819D02*
X111128572Y-120680819D01*
X112033333Y-121680819D02*
X111461905Y-121680819D01*
X111747619Y-121680819D02*
X111747619Y-120680819D01*
X111747619Y-120680819D02*
X111652381Y-120823676D01*
X111652381Y-120823676D02*
X111557143Y-120918914D01*
X111557143Y-120918914D02*
X111461905Y-120966533D01*
X167176667Y-121633200D02*
X167319524Y-121680819D01*
X167319524Y-121680819D02*
X167557619Y-121680819D01*
X167557619Y-121680819D02*
X167652857Y-121633200D01*
X167652857Y-121633200D02*
X167700476Y-121585580D01*
X167700476Y-121585580D02*
X167748095Y-121490342D01*
X167748095Y-121490342D02*
X167748095Y-121395104D01*
X167748095Y-121395104D02*
X167700476Y-121299866D01*
X167700476Y-121299866D02*
X167652857Y-121252247D01*
X167652857Y-121252247D02*
X167557619Y-121204628D01*
X167557619Y-121204628D02*
X167367143Y-121157009D01*
X167367143Y-121157009D02*
X167271905Y-121109390D01*
X167271905Y-121109390D02*
X167224286Y-121061771D01*
X167224286Y-121061771D02*
X167176667Y-120966533D01*
X167176667Y-120966533D02*
X167176667Y-120871295D01*
X167176667Y-120871295D02*
X167224286Y-120776057D01*
X167224286Y-120776057D02*
X167271905Y-120728438D01*
X167271905Y-120728438D02*
X167367143Y-120680819D01*
X167367143Y-120680819D02*
X167605238Y-120680819D01*
X167605238Y-120680819D02*
X167748095Y-120728438D01*
X168081429Y-120680819D02*
X168319524Y-121680819D01*
X168319524Y-121680819D02*
X168510000Y-120966533D01*
X168510000Y-120966533D02*
X168700476Y-121680819D01*
X168700476Y-121680819D02*
X168938572Y-120680819D01*
X169748095Y-121014152D02*
X169748095Y-121680819D01*
X169510000Y-120633200D02*
X169271905Y-121347485D01*
X169271905Y-121347485D02*
X169890952Y-121347485D01*
X145079524Y-111654295D02*
X145079524Y-110854295D01*
X145079524Y-110854295D02*
X145270000Y-110854295D01*
X145270000Y-110854295D02*
X145384286Y-110892390D01*
X145384286Y-110892390D02*
X145460476Y-110968580D01*
X145460476Y-110968580D02*
X145498571Y-111044771D01*
X145498571Y-111044771D02*
X145536667Y-111197152D01*
X145536667Y-111197152D02*
X145536667Y-111311438D01*
X145536667Y-111311438D02*
X145498571Y-111463819D01*
X145498571Y-111463819D02*
X145460476Y-111540009D01*
X145460476Y-111540009D02*
X145384286Y-111616200D01*
X145384286Y-111616200D02*
X145270000Y-111654295D01*
X145270000Y-111654295D02*
X145079524Y-111654295D01*
X145803333Y-110854295D02*
X146298571Y-110854295D01*
X146298571Y-110854295D02*
X146031905Y-111159057D01*
X146031905Y-111159057D02*
X146146190Y-111159057D01*
X146146190Y-111159057D02*
X146222381Y-111197152D01*
X146222381Y-111197152D02*
X146260476Y-111235247D01*
X146260476Y-111235247D02*
X146298571Y-111311438D01*
X146298571Y-111311438D02*
X146298571Y-111501914D01*
X146298571Y-111501914D02*
X146260476Y-111578104D01*
X146260476Y-111578104D02*
X146222381Y-111616200D01*
X146222381Y-111616200D02*
X146146190Y-111654295D01*
X146146190Y-111654295D02*
X145917619Y-111654295D01*
X145917619Y-111654295D02*
X145841428Y-111616200D01*
X145841428Y-111616200D02*
X145803333Y-111578104D01*
X132134819Y-114966667D02*
X131658628Y-115300000D01*
X132134819Y-115538095D02*
X131134819Y-115538095D01*
X131134819Y-115538095D02*
X131134819Y-115157143D01*
X131134819Y-115157143D02*
X131182438Y-115061905D01*
X131182438Y-115061905D02*
X131230057Y-115014286D01*
X131230057Y-115014286D02*
X131325295Y-114966667D01*
X131325295Y-114966667D02*
X131468152Y-114966667D01*
X131468152Y-114966667D02*
X131563390Y-115014286D01*
X131563390Y-115014286D02*
X131611009Y-115061905D01*
X131611009Y-115061905D02*
X131658628Y-115157143D01*
X131658628Y-115157143D02*
X131658628Y-115538095D01*
X131230057Y-114585714D02*
X131182438Y-114538095D01*
X131182438Y-114538095D02*
X131134819Y-114442857D01*
X131134819Y-114442857D02*
X131134819Y-114204762D01*
X131134819Y-114204762D02*
X131182438Y-114109524D01*
X131182438Y-114109524D02*
X131230057Y-114061905D01*
X131230057Y-114061905D02*
X131325295Y-114014286D01*
X131325295Y-114014286D02*
X131420533Y-114014286D01*
X131420533Y-114014286D02*
X131563390Y-114061905D01*
X131563390Y-114061905D02*
X132134819Y-114633333D01*
X132134819Y-114633333D02*
X132134819Y-114014286D01*
X183079524Y-111654295D02*
X183079524Y-110854295D01*
X183079524Y-110854295D02*
X183270000Y-110854295D01*
X183270000Y-110854295D02*
X183384286Y-110892390D01*
X183384286Y-110892390D02*
X183460476Y-110968580D01*
X183460476Y-110968580D02*
X183498571Y-111044771D01*
X183498571Y-111044771D02*
X183536667Y-111197152D01*
X183536667Y-111197152D02*
X183536667Y-111311438D01*
X183536667Y-111311438D02*
X183498571Y-111463819D01*
X183498571Y-111463819D02*
X183460476Y-111540009D01*
X183460476Y-111540009D02*
X183384286Y-111616200D01*
X183384286Y-111616200D02*
X183270000Y-111654295D01*
X183270000Y-111654295D02*
X183079524Y-111654295D01*
X184260476Y-110854295D02*
X183879524Y-110854295D01*
X183879524Y-110854295D02*
X183841428Y-111235247D01*
X183841428Y-111235247D02*
X183879524Y-111197152D01*
X183879524Y-111197152D02*
X183955714Y-111159057D01*
X183955714Y-111159057D02*
X184146190Y-111159057D01*
X184146190Y-111159057D02*
X184222381Y-111197152D01*
X184222381Y-111197152D02*
X184260476Y-111235247D01*
X184260476Y-111235247D02*
X184298571Y-111311438D01*
X184298571Y-111311438D02*
X184298571Y-111501914D01*
X184298571Y-111501914D02*
X184260476Y-111578104D01*
X184260476Y-111578104D02*
X184222381Y-111616200D01*
X184222381Y-111616200D02*
X184146190Y-111654295D01*
X184146190Y-111654295D02*
X183955714Y-111654295D01*
X183955714Y-111654295D02*
X183879524Y-111616200D01*
X183879524Y-111616200D02*
X183841428Y-111578104D01*
X186446667Y-121633200D02*
X186589524Y-121680819D01*
X186589524Y-121680819D02*
X186827619Y-121680819D01*
X186827619Y-121680819D02*
X186922857Y-121633200D01*
X186922857Y-121633200D02*
X186970476Y-121585580D01*
X186970476Y-121585580D02*
X187018095Y-121490342D01*
X187018095Y-121490342D02*
X187018095Y-121395104D01*
X187018095Y-121395104D02*
X186970476Y-121299866D01*
X186970476Y-121299866D02*
X186922857Y-121252247D01*
X186922857Y-121252247D02*
X186827619Y-121204628D01*
X186827619Y-121204628D02*
X186637143Y-121157009D01*
X186637143Y-121157009D02*
X186541905Y-121109390D01*
X186541905Y-121109390D02*
X186494286Y-121061771D01*
X186494286Y-121061771D02*
X186446667Y-120966533D01*
X186446667Y-120966533D02*
X186446667Y-120871295D01*
X186446667Y-120871295D02*
X186494286Y-120776057D01*
X186494286Y-120776057D02*
X186541905Y-120728438D01*
X186541905Y-120728438D02*
X186637143Y-120680819D01*
X186637143Y-120680819D02*
X186875238Y-120680819D01*
X186875238Y-120680819D02*
X187018095Y-120728438D01*
X187351429Y-120680819D02*
X187589524Y-121680819D01*
X187589524Y-121680819D02*
X187780000Y-120966533D01*
X187780000Y-120966533D02*
X187970476Y-121680819D01*
X187970476Y-121680819D02*
X188208572Y-120680819D01*
X189065714Y-120680819D02*
X188589524Y-120680819D01*
X188589524Y-120680819D02*
X188541905Y-121157009D01*
X188541905Y-121157009D02*
X188589524Y-121109390D01*
X188589524Y-121109390D02*
X188684762Y-121061771D01*
X188684762Y-121061771D02*
X188922857Y-121061771D01*
X188922857Y-121061771D02*
X189018095Y-121109390D01*
X189018095Y-121109390D02*
X189065714Y-121157009D01*
X189065714Y-121157009D02*
X189113333Y-121252247D01*
X189113333Y-121252247D02*
X189113333Y-121490342D01*
X189113333Y-121490342D02*
X189065714Y-121585580D01*
X189065714Y-121585580D02*
X189018095Y-121633200D01*
X189018095Y-121633200D02*
X188922857Y-121680819D01*
X188922857Y-121680819D02*
X188684762Y-121680819D01*
X188684762Y-121680819D02*
X188589524Y-121633200D01*
X188589524Y-121633200D02*
X188541905Y-121585580D01*
X112954819Y-115266666D02*
X112478628Y-115599999D01*
X112954819Y-115838094D02*
X111954819Y-115838094D01*
X111954819Y-115838094D02*
X111954819Y-115457142D01*
X111954819Y-115457142D02*
X112002438Y-115361904D01*
X112002438Y-115361904D02*
X112050057Y-115314285D01*
X112050057Y-115314285D02*
X112145295Y-115266666D01*
X112145295Y-115266666D02*
X112288152Y-115266666D01*
X112288152Y-115266666D02*
X112383390Y-115314285D01*
X112383390Y-115314285D02*
X112431009Y-115361904D01*
X112431009Y-115361904D02*
X112478628Y-115457142D01*
X112478628Y-115457142D02*
X112478628Y-115838094D01*
X112954819Y-114314285D02*
X112954819Y-114885713D01*
X112954819Y-114599999D02*
X111954819Y-114599999D01*
X111954819Y-114599999D02*
X112097676Y-114695237D01*
X112097676Y-114695237D02*
X112192914Y-114790475D01*
X112192914Y-114790475D02*
X112240533Y-114885713D01*
D12*
X97353479Y-100683809D02*
X97867526Y-100683809D01*
X97867526Y-100683809D02*
X97928002Y-100653571D01*
X97928002Y-100653571D02*
X97958241Y-100623333D01*
X97958241Y-100623333D02*
X97988479Y-100562857D01*
X97988479Y-100562857D02*
X97988479Y-100441904D01*
X97988479Y-100441904D02*
X97958241Y-100381428D01*
X97958241Y-100381428D02*
X97928002Y-100351190D01*
X97928002Y-100351190D02*
X97867526Y-100320952D01*
X97867526Y-100320952D02*
X97353479Y-100320952D01*
X97988479Y-99685952D02*
X97988479Y-100048809D01*
X97988479Y-99867381D02*
X97353479Y-99867381D01*
X97353479Y-99867381D02*
X97444193Y-99927857D01*
X97444193Y-99927857D02*
X97504669Y-99988333D01*
X97504669Y-99988333D02*
X97534907Y-100048809D01*
D11*
X109079524Y-111262295D02*
X109079524Y-110462295D01*
X109079524Y-110462295D02*
X109270000Y-110462295D01*
X109270000Y-110462295D02*
X109384286Y-110500390D01*
X109384286Y-110500390D02*
X109460476Y-110576580D01*
X109460476Y-110576580D02*
X109498571Y-110652771D01*
X109498571Y-110652771D02*
X109536667Y-110805152D01*
X109536667Y-110805152D02*
X109536667Y-110919438D01*
X109536667Y-110919438D02*
X109498571Y-111071819D01*
X109498571Y-111071819D02*
X109460476Y-111148009D01*
X109460476Y-111148009D02*
X109384286Y-111224200D01*
X109384286Y-111224200D02*
X109270000Y-111262295D01*
X109270000Y-111262295D02*
X109079524Y-111262295D01*
X110298571Y-111262295D02*
X109841428Y-111262295D01*
X110070000Y-111262295D02*
X110070000Y-110462295D01*
X110070000Y-110462295D02*
X109993809Y-110576580D01*
X109993809Y-110576580D02*
X109917619Y-110652771D01*
X109917619Y-110652771D02*
X109841428Y-110690866D01*
X147926667Y-121613200D02*
X148069524Y-121660819D01*
X148069524Y-121660819D02*
X148307619Y-121660819D01*
X148307619Y-121660819D02*
X148402857Y-121613200D01*
X148402857Y-121613200D02*
X148450476Y-121565580D01*
X148450476Y-121565580D02*
X148498095Y-121470342D01*
X148498095Y-121470342D02*
X148498095Y-121375104D01*
X148498095Y-121375104D02*
X148450476Y-121279866D01*
X148450476Y-121279866D02*
X148402857Y-121232247D01*
X148402857Y-121232247D02*
X148307619Y-121184628D01*
X148307619Y-121184628D02*
X148117143Y-121137009D01*
X148117143Y-121137009D02*
X148021905Y-121089390D01*
X148021905Y-121089390D02*
X147974286Y-121041771D01*
X147974286Y-121041771D02*
X147926667Y-120946533D01*
X147926667Y-120946533D02*
X147926667Y-120851295D01*
X147926667Y-120851295D02*
X147974286Y-120756057D01*
X147974286Y-120756057D02*
X148021905Y-120708438D01*
X148021905Y-120708438D02*
X148117143Y-120660819D01*
X148117143Y-120660819D02*
X148355238Y-120660819D01*
X148355238Y-120660819D02*
X148498095Y-120708438D01*
X148831429Y-120660819D02*
X149069524Y-121660819D01*
X149069524Y-121660819D02*
X149260000Y-120946533D01*
X149260000Y-120946533D02*
X149450476Y-121660819D01*
X149450476Y-121660819D02*
X149688572Y-120660819D01*
X149974286Y-120660819D02*
X150593333Y-120660819D01*
X150593333Y-120660819D02*
X150260000Y-121041771D01*
X150260000Y-121041771D02*
X150402857Y-121041771D01*
X150402857Y-121041771D02*
X150498095Y-121089390D01*
X150498095Y-121089390D02*
X150545714Y-121137009D01*
X150545714Y-121137009D02*
X150593333Y-121232247D01*
X150593333Y-121232247D02*
X150593333Y-121470342D01*
X150593333Y-121470342D02*
X150545714Y-121565580D01*
X150545714Y-121565580D02*
X150498095Y-121613200D01*
X150498095Y-121613200D02*
X150402857Y-121660819D01*
X150402857Y-121660819D02*
X150117143Y-121660819D01*
X150117143Y-121660819D02*
X150021905Y-121613200D01*
X150021905Y-121613200D02*
X149974286Y-121565580D01*
X169134819Y-115166666D02*
X168658628Y-115499999D01*
X169134819Y-115738094D02*
X168134819Y-115738094D01*
X168134819Y-115738094D02*
X168134819Y-115357142D01*
X168134819Y-115357142D02*
X168182438Y-115261904D01*
X168182438Y-115261904D02*
X168230057Y-115214285D01*
X168230057Y-115214285D02*
X168325295Y-115166666D01*
X168325295Y-115166666D02*
X168468152Y-115166666D01*
X168468152Y-115166666D02*
X168563390Y-115214285D01*
X168563390Y-115214285D02*
X168611009Y-115261904D01*
X168611009Y-115261904D02*
X168658628Y-115357142D01*
X168658628Y-115357142D02*
X168658628Y-115738094D01*
X168468152Y-114309523D02*
X169134819Y-114309523D01*
X168087200Y-114547618D02*
X168801485Y-114785713D01*
X168801485Y-114785713D02*
X168801485Y-114166666D01*
D13*
%TO.C,G\u002A\u002A\u002A*%
G36*
X138692560Y-103954178D02*
G01*
X138810390Y-103980832D01*
X138916778Y-104014454D01*
X138997300Y-104055360D01*
X139023705Y-104113160D01*
X139021769Y-104172795D01*
X139010444Y-104238489D01*
X138979863Y-104278430D01*
X138911138Y-104305832D01*
X138793961Y-104332150D01*
X138673595Y-104354075D01*
X138585797Y-104364951D01*
X138555067Y-104363794D01*
X138547148Y-104322270D01*
X138550155Y-104228814D01*
X138558658Y-104144162D01*
X138584409Y-103937323D01*
X138692560Y-103954178D01*
G37*
G36*
X138657541Y-104672891D02*
G01*
X138770999Y-104713545D01*
X138865294Y-104770899D01*
X138919416Y-104839205D01*
X138922253Y-104848007D01*
X138914532Y-104932325D01*
X138869222Y-105026981D01*
X138806125Y-105092418D01*
X138797778Y-105096658D01*
X138709291Y-105118447D01*
X138593226Y-105126085D01*
X138473017Y-105121046D01*
X138372100Y-105104803D01*
X138313910Y-105078827D01*
X138307844Y-105065864D01*
X138319013Y-105010648D01*
X138346706Y-104918503D01*
X138351325Y-104904757D01*
X138386219Y-104797554D01*
X138411333Y-104712266D01*
X138412290Y-104708561D01*
X138457177Y-104664653D01*
X138545931Y-104654677D01*
X138657541Y-104672891D01*
G37*
G36*
X130458667Y-98808017D02*
G01*
X130420708Y-98897083D01*
X130350093Y-99020834D01*
X130253789Y-99166555D01*
X130187319Y-99258258D01*
X130109594Y-99352834D01*
X130048191Y-99388333D01*
X129980573Y-99366269D01*
X129884207Y-99288157D01*
X129874323Y-99279301D01*
X129789668Y-99204299D01*
X129740866Y-99152357D01*
X129733877Y-99111934D01*
X129774665Y-99071482D01*
X129869196Y-99019455D01*
X130023433Y-98944314D01*
X130055436Y-98928695D01*
X130208609Y-98856693D01*
X130337071Y-98801876D01*
X130425459Y-98770455D01*
X130457002Y-98766342D01*
X130458667Y-98808017D01*
G37*
G36*
X127878860Y-94919512D02*
G01*
X127909459Y-94955373D01*
X127911614Y-94959309D01*
X127951310Y-95006089D01*
X128024064Y-95040644D01*
X128149362Y-95071538D01*
X128181042Y-95077763D01*
X128424504Y-95131781D01*
X128654046Y-95200282D01*
X128889006Y-95290651D01*
X129148719Y-95410282D01*
X129433305Y-95556341D01*
X129904631Y-95830380D01*
X130365516Y-96147679D01*
X130820352Y-96512532D01*
X131273537Y-96929239D01*
X131729470Y-97402097D01*
X132192544Y-97935407D01*
X132667153Y-98533466D01*
X133151730Y-99192185D01*
X133314231Y-99414765D01*
X133492050Y-99648710D01*
X133669392Y-99873849D01*
X133830457Y-100070011D01*
X133922576Y-100176502D01*
X134468636Y-100731813D01*
X135072211Y-101240836D01*
X135729067Y-101701673D01*
X136434969Y-102112422D01*
X137185683Y-102471187D01*
X137976975Y-102776067D01*
X138804613Y-103025163D01*
X139664358Y-103216577D01*
X140551980Y-103348408D01*
X141106838Y-103398864D01*
X141336696Y-103413945D01*
X141556803Y-103426810D01*
X141748654Y-103436485D01*
X141893742Y-103442004D01*
X141948509Y-103442917D01*
X142065110Y-103449482D01*
X142145287Y-103466299D01*
X142167370Y-103482106D01*
X142139682Y-103512782D01*
X142056355Y-103577717D01*
X141926162Y-103670738D01*
X141757881Y-103785676D01*
X141560283Y-103916365D01*
X141428399Y-104001633D01*
X141216040Y-104138305D01*
X141026039Y-104261589D01*
X140867465Y-104365520D01*
X140749385Y-104444135D01*
X140680863Y-104491464D01*
X140667285Y-104502407D01*
X140695435Y-104526227D01*
X140780785Y-104582261D01*
X140914461Y-104665070D01*
X141087585Y-104769223D01*
X141291283Y-104889283D01*
X141443908Y-104977917D01*
X141675397Y-105113212D01*
X141877245Y-105234410D01*
X142041361Y-105336419D01*
X142159654Y-105414148D01*
X142224029Y-105462510D01*
X142233522Y-105474558D01*
X142197209Y-105497017D01*
X142090295Y-105530138D01*
X141917321Y-105572903D01*
X141682829Y-105624300D01*
X141391366Y-105683308D01*
X141047473Y-105748912D01*
X140824028Y-105789903D01*
X140465192Y-105848029D01*
X140051095Y-105903619D01*
X139599811Y-105955080D01*
X139129415Y-106000827D01*
X138657981Y-106039270D01*
X138203583Y-106068822D01*
X137784297Y-106087895D01*
X137418198Y-106094900D01*
X137355066Y-106094728D01*
X136589209Y-106067318D01*
X135870231Y-105996589D01*
X135202475Y-105883285D01*
X134590284Y-105728154D01*
X134037995Y-105531939D01*
X134007940Y-105519335D01*
X133824821Y-105432453D01*
X133592955Y-105307726D01*
X133324619Y-105152685D01*
X133032085Y-104974867D01*
X132727628Y-104781810D01*
X132426660Y-104583117D01*
X134898093Y-104583117D01*
X134909955Y-104658988D01*
X134962932Y-104723878D01*
X135064125Y-104784660D01*
X135220631Y-104848204D01*
X135439550Y-104921382D01*
X135585126Y-104966986D01*
X135810461Y-105025611D01*
X135976488Y-105042547D01*
X136087494Y-105017801D01*
X136139663Y-104967832D01*
X136137296Y-104903768D01*
X136070715Y-104831662D01*
X135950020Y-104759590D01*
X135808987Y-104703252D01*
X135664179Y-104649092D01*
X135609879Y-104624932D01*
X136449713Y-104624932D01*
X136484004Y-104817460D01*
X136576907Y-104993560D01*
X136714304Y-105137065D01*
X136882078Y-105231810D01*
X137004266Y-105259944D01*
X137156815Y-105237410D01*
X137223564Y-105196837D01*
X137963660Y-105196837D01*
X137986792Y-105254287D01*
X138074160Y-105311078D01*
X138214126Y-105361534D01*
X138373624Y-105396542D01*
X138566693Y-105409700D01*
X138760187Y-105390429D01*
X138930635Y-105343354D01*
X139054560Y-105273109D01*
X139069169Y-105259345D01*
X139144398Y-105137536D01*
X139186721Y-104978004D01*
X139194638Y-104807198D01*
X139166657Y-104651566D01*
X139109496Y-104546276D01*
X139095221Y-104505521D01*
X139141455Y-104462192D01*
X139150969Y-104456164D01*
X139253758Y-104357581D01*
X139334499Y-104218077D01*
X139377818Y-104069487D01*
X139378801Y-103984269D01*
X139360652Y-103902986D01*
X139322221Y-103848441D01*
X139243532Y-103798929D01*
X139179561Y-103767723D01*
X139026829Y-103715330D01*
X138841670Y-103679851D01*
X138653500Y-103664484D01*
X138491739Y-103672421D01*
X138429499Y-103686274D01*
X138375498Y-103709258D01*
X138339708Y-103748437D01*
X138309807Y-103824102D01*
X138279596Y-103933108D01*
X138253352Y-104035028D01*
X138214839Y-104186880D01*
X138168340Y-104371512D01*
X138118148Y-104571770D01*
X138068546Y-104770505D01*
X138023826Y-104950563D01*
X137988276Y-105094789D01*
X137966182Y-105186036D01*
X137963660Y-105196837D01*
X137223564Y-105196837D01*
X137310032Y-105144278D01*
X137459261Y-104985817D01*
X137599850Y-104767288D01*
X137727145Y-104493957D01*
X137761681Y-104403060D01*
X137854993Y-104119890D01*
X137907307Y-103896549D01*
X137918938Y-103729018D01*
X137890205Y-103613280D01*
X137828963Y-103549420D01*
X137756370Y-103531118D01*
X137687299Y-103567207D01*
X137617682Y-103663045D01*
X137543451Y-103823988D01*
X137472914Y-104018271D01*
X137379255Y-104272047D01*
X137281145Y-104494804D01*
X137184574Y-104675031D01*
X137095530Y-104801215D01*
X137038955Y-104852447D01*
X136950405Y-104868150D01*
X136857005Y-104830004D01*
X136797558Y-104762862D01*
X136783589Y-104697044D01*
X136790753Y-104587282D01*
X136820318Y-104426522D01*
X136873553Y-104207707D01*
X136942507Y-103956164D01*
X137005366Y-103720906D01*
X137041610Y-103546639D01*
X137051814Y-103423334D01*
X137036551Y-103340960D01*
X136996395Y-103289490D01*
X136981257Y-103279529D01*
X136887428Y-103261398D01*
X136800954Y-103317313D01*
X136724532Y-103445416D01*
X136718216Y-103460482D01*
X136666193Y-103608325D01*
X136610822Y-103798983D01*
X136556928Y-104011501D01*
X136509348Y-104224930D01*
X136472909Y-104418314D01*
X136452445Y-104570702D01*
X136449713Y-104624932D01*
X135609879Y-104624932D01*
X135525459Y-104587370D01*
X135466879Y-104556610D01*
X135331530Y-104478465D01*
X135441217Y-104245426D01*
X135606074Y-103885644D01*
X135732947Y-103586603D01*
X135823225Y-103343984D01*
X135878298Y-103153468D01*
X135899554Y-103010735D01*
X135894546Y-102966224D01*
X135888385Y-102911467D01*
X135877959Y-102887760D01*
X135834941Y-102842281D01*
X135766989Y-102845938D01*
X135730219Y-102858473D01*
X135671266Y-102888216D01*
X135616764Y-102936386D01*
X135561161Y-103012583D01*
X135498901Y-103126398D01*
X135424431Y-103287424D01*
X135332198Y-103505258D01*
X135275376Y-103644153D01*
X135191595Y-103848428D01*
X135107032Y-104051115D01*
X135031099Y-104229864D01*
X134973209Y-104362321D01*
X134969320Y-104370953D01*
X134920248Y-104489396D01*
X134898093Y-104583117D01*
X132426660Y-104583117D01*
X132423523Y-104581046D01*
X132132044Y-104380116D01*
X132007874Y-104291364D01*
X131645369Y-104022533D01*
X131393468Y-103825442D01*
X133593947Y-103825442D01*
X133615689Y-104052521D01*
X133699424Y-104248024D01*
X133837239Y-104401659D01*
X134021218Y-104503131D01*
X134137803Y-104532750D01*
X134300771Y-104535450D01*
X134438086Y-104493131D01*
X134528311Y-104412561D01*
X134530502Y-104408871D01*
X134566261Y-104316298D01*
X134545545Y-104245574D01*
X134461422Y-104186676D01*
X134345971Y-104142047D01*
X134194254Y-104076171D01*
X134101139Y-103989600D01*
X134056881Y-103866364D01*
X134051723Y-103690498D01*
X134053415Y-103662964D01*
X134073898Y-103505267D01*
X134118798Y-103364780D01*
X134200108Y-103204427D01*
X134203901Y-103197753D01*
X134328878Y-103008796D01*
X134452136Y-102888614D01*
X134581801Y-102830574D01*
X134663004Y-102822767D01*
X134743884Y-102830990D01*
X134798109Y-102866375D01*
X134856022Y-102948984D01*
X134857465Y-102951319D01*
X134944694Y-103055277D01*
X135026169Y-103086471D01*
X135093563Y-103048138D01*
X135138547Y-102943524D01*
X135152066Y-102836696D01*
X135142614Y-102770935D01*
X135128027Y-102669432D01*
X135047213Y-102538259D01*
X134922141Y-102447928D01*
X134765325Y-102403192D01*
X134589283Y-102408807D01*
X134406532Y-102469522D01*
X134319049Y-102520343D01*
X134149069Y-102668292D01*
X133983788Y-102871876D01*
X133834391Y-103110961D01*
X133712063Y-103365411D01*
X133627995Y-103615089D01*
X133593947Y-103825442D01*
X131393468Y-103825442D01*
X131297767Y-103750564D01*
X130956550Y-103467708D01*
X130613199Y-103166219D01*
X130259197Y-102838349D01*
X129886023Y-102476353D01*
X129625355Y-102213728D01*
X130955760Y-102213728D01*
X130978467Y-102272841D01*
X131061289Y-102338913D01*
X131189291Y-102359953D01*
X131348785Y-102339066D01*
X131526079Y-102279356D01*
X131707481Y-102183929D01*
X131859387Y-102073088D01*
X131958520Y-101998190D01*
X132027436Y-101972994D01*
X132084165Y-101988911D01*
X132112970Y-102011301D01*
X132126040Y-102045301D01*
X132121179Y-102103401D01*
X132096187Y-102198095D01*
X132048860Y-102341872D01*
X131994700Y-102497064D01*
X131922210Y-102711350D01*
X131876982Y-102868220D01*
X131856157Y-102980084D01*
X131856876Y-103059349D01*
X131860791Y-103078346D01*
X131921403Y-103195416D01*
X132019280Y-103258470D01*
X132137315Y-103256628D01*
X132139787Y-103255847D01*
X132244601Y-103197545D01*
X132331626Y-103090973D01*
X132406240Y-102927013D01*
X132473821Y-102696547D01*
X132476796Y-102684412D01*
X132515577Y-102510957D01*
X132542963Y-102365355D01*
X132546808Y-102344914D01*
X132565361Y-102214517D01*
X132567870Y-102183282D01*
X132576253Y-102021765D01*
X132732746Y-101985281D01*
X132909239Y-101933795D01*
X133087942Y-101864261D01*
X133250300Y-101785741D01*
X133377755Y-101707296D01*
X133451754Y-101637981D01*
X133455079Y-101632638D01*
X133487759Y-101533305D01*
X133452514Y-101466992D01*
X133349984Y-101433825D01*
X133180807Y-101433932D01*
X132945627Y-101467439D01*
X132787654Y-101500314D01*
X132639442Y-101530640D01*
X132531295Y-101546417D01*
X132475370Y-101546317D01*
X132475732Y-101534434D01*
X132523245Y-101481672D01*
X132598966Y-101381270D01*
X132690609Y-101249963D01*
X132747754Y-101163877D01*
X132842143Y-101017234D01*
X132901226Y-100916510D01*
X132931605Y-100844173D01*
X132939891Y-100782684D01*
X132932686Y-100714510D01*
X132927769Y-100686050D01*
X132902806Y-100609442D01*
X132886388Y-100559056D01*
X132822014Y-100483040D01*
X132821012Y-100482453D01*
X132747270Y-100458395D01*
X132669654Y-100475874D01*
X132580872Y-100540779D01*
X132473618Y-100659006D01*
X132340595Y-100836444D01*
X132286223Y-100914174D01*
X132077724Y-101195927D01*
X131872002Y-101426668D01*
X131647558Y-101627465D01*
X131382908Y-101819382D01*
X131321485Y-101859702D01*
X131145544Y-101978985D01*
X131030542Y-102072211D01*
X130969581Y-102147688D01*
X130955760Y-102213728D01*
X129625355Y-102213728D01*
X129485158Y-102072478D01*
X129048085Y-101618980D01*
X128912994Y-101476706D01*
X128485608Y-101028055D01*
X130092032Y-101028055D01*
X130092538Y-101256539D01*
X130160312Y-101455512D01*
X130229181Y-101554489D01*
X130352829Y-101679358D01*
X130468622Y-101746428D01*
X130598593Y-101767826D01*
X130616903Y-101767894D01*
X130759649Y-101733853D01*
X130859766Y-101639656D01*
X130888461Y-101578782D01*
X130877991Y-101510190D01*
X130803386Y-101417690D01*
X130769850Y-101386086D01*
X130661109Y-101264898D01*
X130612062Y-101142955D01*
X130621904Y-101005740D01*
X130689840Y-100838725D01*
X130735223Y-100756682D01*
X130924017Y-100498297D01*
X131166117Y-100267079D01*
X131439002Y-100084311D01*
X131456199Y-100075175D01*
X131616085Y-100010281D01*
X131736573Y-100007196D01*
X131824897Y-100067658D01*
X131882821Y-100177710D01*
X131938433Y-100298267D01*
X132001278Y-100354212D01*
X132085595Y-100356663D01*
X132105874Y-100351824D01*
X132202665Y-100290060D01*
X132269500Y-100178455D01*
X132301041Y-100039124D01*
X132291948Y-99894175D01*
X132244620Y-99777214D01*
X132137207Y-99662944D01*
X131984461Y-99564337D01*
X131817079Y-99498893D01*
X131729018Y-99483300D01*
X131515681Y-99500569D01*
X131282957Y-99579218D01*
X131042356Y-99711141D01*
X130805377Y-99888228D01*
X130583527Y-100102369D01*
X130388311Y-100345453D01*
X130292006Y-100496199D01*
X130158589Y-100773472D01*
X130092032Y-101028055D01*
X128485608Y-101028055D01*
X128432227Y-100972018D01*
X127996330Y-100521409D01*
X127788941Y-100311344D01*
X127600982Y-100120962D01*
X127241857Y-99766766D01*
X127032494Y-99567231D01*
X128483499Y-99567231D01*
X128506786Y-99653365D01*
X128586715Y-99702793D01*
X128715752Y-99709823D01*
X128835543Y-99685232D01*
X128963870Y-99641882D01*
X129073966Y-99594875D01*
X129110454Y-99574745D01*
X129162506Y-99547561D01*
X129211771Y-99548168D01*
X129279400Y-99582836D01*
X129383648Y-99655738D01*
X129483479Y-99730730D01*
X129553667Y-99788286D01*
X129576862Y-99812761D01*
X129554052Y-99847082D01*
X129488715Y-99918214D01*
X129394358Y-100011559D01*
X129382059Y-100023244D01*
X129248150Y-100155103D01*
X129165496Y-100251673D01*
X129125888Y-100325064D01*
X129121112Y-100387388D01*
X129124516Y-100403095D01*
X129182959Y-100486469D01*
X129295384Y-100526483D01*
X129450888Y-100519447D01*
X129461884Y-100517343D01*
X129544712Y-100495931D01*
X129618080Y-100461173D01*
X129697161Y-100401847D01*
X129797123Y-100306730D01*
X129856526Y-100244775D01*
X129920276Y-100178283D01*
X130212934Y-99852077D01*
X130453798Y-99548275D01*
X130656019Y-99249733D01*
X130738169Y-99112099D01*
X130876444Y-98845591D01*
X130957739Y-98625984D01*
X130982488Y-98450320D01*
X130951135Y-98315640D01*
X130870058Y-98223158D01*
X130753058Y-98177926D01*
X130603985Y-98190519D01*
X130418200Y-98262024D01*
X130219268Y-98375418D01*
X130104692Y-98447159D01*
X129939804Y-98549125D01*
X129739391Y-98672236D01*
X129518242Y-98807409D01*
X129291147Y-98945565D01*
X129257576Y-98965929D01*
X129049195Y-99094062D01*
X128862300Y-99212374D01*
X128707011Y-99314181D01*
X128593451Y-99392798D01*
X128531741Y-99441542D01*
X128524390Y-99450087D01*
X128483499Y-99567231D01*
X127032494Y-99567231D01*
X126914632Y-99454902D01*
X126614987Y-99181456D01*
X126338595Y-98942515D01*
X126081133Y-98734161D01*
X125838281Y-98552482D01*
X125605711Y-98393560D01*
X125379103Y-98253482D01*
X125308984Y-98213044D01*
X125121669Y-98110621D01*
X124940091Y-98018142D01*
X124777826Y-97941857D01*
X124693391Y-97906715D01*
X126765102Y-97906715D01*
X126824899Y-97984412D01*
X126852550Y-98002499D01*
X127002430Y-98045965D01*
X127188629Y-98023912D01*
X127411833Y-97936202D01*
X127535232Y-97869033D01*
X127666227Y-97791478D01*
X127771577Y-97727856D01*
X127834370Y-97688430D01*
X127843429Y-97682032D01*
X127873770Y-97701800D01*
X127937371Y-97765659D01*
X128020671Y-97857778D01*
X128110105Y-97962325D01*
X128192112Y-98063467D01*
X128253128Y-98145372D01*
X128279254Y-98190784D01*
X128257525Y-98224885D01*
X128194889Y-98302226D01*
X128101933Y-98410079D01*
X128025244Y-98496086D01*
X127888435Y-98653830D01*
X127801377Y-98770363D01*
X127757250Y-98855291D01*
X127749865Y-98883918D01*
X127753531Y-99002868D01*
X127813587Y-99076168D01*
X127928494Y-99106047D01*
X127934265Y-99107547D01*
X128005401Y-99109092D01*
X128128113Y-99093804D01*
X128234077Y-99061249D01*
X128240230Y-99058233D01*
X128303404Y-99013766D01*
X128410893Y-98925088D01*
X128552770Y-98801281D01*
X128719103Y-98651438D01*
X128899966Y-98484639D01*
X129085430Y-98309974D01*
X129265562Y-98136529D01*
X129430438Y-97973390D01*
X129475156Y-97928106D01*
X129635963Y-97756524D01*
X129742731Y-97621126D01*
X129801096Y-97510953D01*
X129816691Y-97415049D01*
X129795155Y-97322457D01*
X129791337Y-97313329D01*
X129752005Y-97235030D01*
X129705247Y-97198981D01*
X129620159Y-97184768D01*
X129593391Y-97182557D01*
X129520003Y-97183644D01*
X129443234Y-97203635D01*
X129348251Y-97249510D01*
X129220214Y-97328245D01*
X129072093Y-97427741D01*
X128925615Y-97527747D01*
X128803695Y-97610424D01*
X128719022Y-97667202D01*
X128684294Y-97689513D01*
X128684278Y-97689520D01*
X128654460Y-97665891D01*
X128593988Y-97599812D01*
X128517900Y-97509619D01*
X128441235Y-97413650D01*
X128379029Y-97330245D01*
X128346321Y-97277743D01*
X128346029Y-97277026D01*
X128352688Y-97217254D01*
X128415721Y-97128694D01*
X128436052Y-97106068D01*
X128533303Y-96969355D01*
X128610739Y-96801785D01*
X128662955Y-96624248D01*
X128684539Y-96457635D01*
X128670085Y-96322842D01*
X128650387Y-96278139D01*
X128559723Y-96178556D01*
X128452612Y-96148264D01*
X128326638Y-96187881D01*
X128179390Y-96298025D01*
X128049175Y-96432209D01*
X127622964Y-96889591D01*
X127184208Y-97309718D01*
X127156432Y-97334772D01*
X126961196Y-97523140D01*
X126831839Y-97679182D01*
X126766944Y-97806006D01*
X126765102Y-97906715D01*
X124693391Y-97906715D01*
X124648454Y-97888012D01*
X124565555Y-97862859D01*
X124547255Y-97862501D01*
X124496170Y-97901012D01*
X124409747Y-97993844D01*
X124294751Y-98131990D01*
X124157954Y-98306438D01*
X124006118Y-98508186D01*
X123846015Y-98728224D01*
X123684409Y-98957544D01*
X123528071Y-99187140D01*
X123383765Y-99408004D01*
X123371001Y-99428090D01*
X123050125Y-99934359D01*
X122808302Y-99794741D01*
X122566478Y-99655125D01*
X122638340Y-99530655D01*
X122706576Y-99424847D01*
X122813702Y-99273672D01*
X122949831Y-99090105D01*
X123105075Y-98887119D01*
X123269544Y-98677688D01*
X123433350Y-98474790D01*
X123549720Y-98334830D01*
X124020839Y-97806319D01*
X124524602Y-97299898D01*
X125069794Y-96807955D01*
X125174740Y-96722457D01*
X125665201Y-96322882D01*
X126319611Y-95837067D01*
X126880526Y-95450133D01*
X127154707Y-95267950D01*
X127373713Y-95126613D01*
X127544337Y-95022896D01*
X127673372Y-94953559D01*
X127767608Y-94915371D01*
X127833841Y-94905100D01*
X127878860Y-94919512D01*
G37*
G36*
X199100000Y-109100000D02*
G01*
X199100000Y-114100000D01*
X194100000Y-114100000D01*
X189100000Y-114100000D01*
X189100000Y-114000000D01*
X189200000Y-114000000D01*
X194100000Y-114000000D01*
X199000000Y-114000000D01*
X199000000Y-111300000D01*
X199000000Y-108600000D01*
X198116889Y-108599999D01*
X197233779Y-108599999D01*
X196787177Y-108834999D01*
X196340575Y-109070000D01*
X196340287Y-109177293D01*
X196321396Y-109298639D01*
X196269354Y-109411994D01*
X196190130Y-109505876D01*
X196155156Y-109533356D01*
X196049541Y-109583398D01*
X195931132Y-109600713D01*
X195810697Y-109584899D01*
X195722609Y-109549490D01*
X195619661Y-109473025D01*
X195547463Y-109376497D01*
X195507230Y-109266669D01*
X195503499Y-109205124D01*
X195682668Y-109205124D01*
X195712388Y-109286519D01*
X195775402Y-109359450D01*
X195830000Y-109397759D01*
X195890012Y-109413496D01*
X195964148Y-109408013D01*
X196034566Y-109384139D01*
X196070357Y-109359663D01*
X196128478Y-109281556D01*
X196152005Y-109195627D01*
X196142798Y-109110170D01*
X196102715Y-109033475D01*
X196033616Y-108973834D01*
X195978369Y-108949482D01*
X195899666Y-108943900D01*
X195820049Y-108970496D01*
X195749906Y-109023079D01*
X195699628Y-109095459D01*
X195689482Y-109121630D01*
X195682668Y-109205124D01*
X195503499Y-109205124D01*
X195500176Y-109150301D01*
X195527514Y-109034157D01*
X195590458Y-108924996D01*
X195606945Y-108905144D01*
X195698480Y-108827766D01*
X195805972Y-108779895D01*
X195920841Y-108762202D01*
X196034510Y-108775357D01*
X196138400Y-108820030D01*
X196189727Y-108859640D01*
X196202702Y-108870477D01*
X196217427Y-108876443D01*
X196238203Y-108875763D01*
X196269332Y-108866660D01*
X196315114Y-108847358D01*
X196379851Y-108816081D01*
X196467844Y-108771052D01*
X196583394Y-108710497D01*
X196700000Y-108648920D01*
X197170000Y-108400469D01*
X198085000Y-108400234D01*
X199000000Y-108400000D01*
X199000000Y-108050000D01*
X199000000Y-107700000D01*
X197775000Y-107700344D01*
X196550000Y-107700688D01*
X196103516Y-107937256D01*
X195657033Y-108173825D01*
X195653516Y-108315238D01*
X195649023Y-108397101D01*
X195637511Y-108454907D01*
X195614535Y-108504514D01*
X195590000Y-108541790D01*
X195504225Y-108632210D01*
X195401552Y-108690866D01*
X195289221Y-108717743D01*
X195174473Y-108712828D01*
X195064548Y-108676107D01*
X194966688Y-108607568D01*
X194910921Y-108543053D01*
X194859517Y-108437252D01*
X194840232Y-108318849D01*
X194845515Y-108272645D01*
X195029572Y-108272645D01*
X195032338Y-108357071D01*
X195049558Y-108406245D01*
X195096883Y-108469094D01*
X195164917Y-108516947D01*
X195237818Y-108539106D01*
X195246977Y-108539544D01*
X195289568Y-108531502D01*
X195344360Y-108511264D01*
X195350431Y-108508454D01*
X195408372Y-108463692D01*
X195454829Y-108397593D01*
X195478805Y-108327001D01*
X195480000Y-108310000D01*
X195463202Y-108239275D01*
X195419927Y-108169745D01*
X195360848Y-108117426D01*
X195346510Y-108109684D01*
X195259672Y-108087096D01*
X195178364Y-108098285D01*
X195108781Y-108137065D01*
X195057118Y-108197247D01*
X195029572Y-108272645D01*
X194845515Y-108272645D01*
X194853816Y-108200056D01*
X194884977Y-108120000D01*
X194959304Y-108020069D01*
X195056006Y-107948734D01*
X195167557Y-107908289D01*
X195286431Y-107901029D01*
X195405102Y-107929252D01*
X195446601Y-107948688D01*
X195543202Y-108000577D01*
X196017886Y-107750288D01*
X196492570Y-107500000D01*
X197746285Y-107500000D01*
X199000000Y-107500000D01*
X199000000Y-105850000D01*
X199000000Y-104200000D01*
X194100000Y-104200000D01*
X189200000Y-104200000D01*
X189200000Y-109100000D01*
X189200000Y-114000000D01*
X189100000Y-114000000D01*
X189100000Y-109100000D01*
X189100000Y-104100000D01*
X194100000Y-104100000D01*
X199100000Y-104100000D01*
X199100000Y-109100000D01*
G37*
G36*
X191840455Y-113053938D02*
G01*
X191856963Y-113084282D01*
X191878154Y-113139361D01*
X191900956Y-113208687D01*
X191922297Y-113281773D01*
X191939103Y-113348132D01*
X191948304Y-113397276D01*
X191947231Y-113418442D01*
X191916265Y-113433574D01*
X191856764Y-113454254D01*
X191779294Y-113477599D01*
X191694422Y-113500728D01*
X191612714Y-113520759D01*
X191544737Y-113534809D01*
X191501548Y-113540000D01*
X191433324Y-113523427D01*
X191378461Y-113481538D01*
X191335906Y-113426377D01*
X191320659Y-113364669D01*
X191320000Y-113342653D01*
X191326696Y-113279074D01*
X191350284Y-113228515D01*
X191396010Y-113186688D01*
X191469118Y-113149302D01*
X191574857Y-113112069D01*
X191617938Y-113099046D01*
X191703708Y-113075582D01*
X191775114Y-113059360D01*
X191823686Y-113052097D01*
X191840455Y-113053938D01*
G37*
G36*
X193307632Y-112476950D02*
G01*
X193369969Y-112577584D01*
X193412832Y-112650116D01*
X193438518Y-112700001D01*
X193449324Y-112732694D01*
X193447544Y-112753650D01*
X193435477Y-112768324D01*
X193431558Y-112771333D01*
X193399537Y-112790677D01*
X193339502Y-112823500D01*
X193259079Y-112865932D01*
X193165892Y-112914101D01*
X193067566Y-112964136D01*
X192971726Y-113012166D01*
X192885996Y-113054321D01*
X192818001Y-113086729D01*
X192775365Y-113105519D01*
X192768459Y-113107982D01*
X192746944Y-113109813D01*
X192727279Y-113096681D01*
X192704867Y-113062323D01*
X192675108Y-113000477D01*
X192653459Y-112951361D01*
X192621154Y-112875053D01*
X192596090Y-112812183D01*
X192581892Y-112772023D01*
X192580000Y-112763434D01*
X192597013Y-112746341D01*
X192640991Y-112721668D01*
X192685769Y-112701716D01*
X192744589Y-112675373D01*
X192827532Y-112634975D01*
X192923771Y-112585933D01*
X193022484Y-112533653D01*
X193026749Y-112531344D01*
X193261960Y-112403900D01*
X193307632Y-112476950D01*
G37*
G36*
X194502128Y-111471068D02*
G01*
X194577274Y-111510550D01*
X194636714Y-111545095D01*
X194672758Y-111570041D01*
X194680000Y-111578890D01*
X194668068Y-111609416D01*
X194635492Y-111664135D01*
X194587096Y-111736396D01*
X194527708Y-111819548D01*
X194462154Y-111906944D01*
X194395260Y-111991932D01*
X194331852Y-112067863D01*
X194296184Y-112107716D01*
X194149764Y-112265432D01*
X194013116Y-112112751D01*
X193876468Y-111960071D01*
X194024331Y-111800910D01*
X194096318Y-111718591D01*
X194166975Y-111629571D01*
X194225623Y-111547642D01*
X194248226Y-111511742D01*
X194324256Y-111381736D01*
X194502128Y-111471068D01*
G37*
G36*
X194498484Y-109880148D02*
G01*
X194534257Y-109918653D01*
X194578113Y-109981969D01*
X194626210Y-110064120D01*
X194674703Y-110159131D01*
X194711040Y-110240000D01*
X194741418Y-110317998D01*
X194771315Y-110404907D01*
X194798243Y-110492019D01*
X194819712Y-110570627D01*
X194833233Y-110632025D01*
X194836318Y-110667506D01*
X194834570Y-110672096D01*
X194812463Y-110678189D01*
X194759681Y-110687884D01*
X194685214Y-110699619D01*
X194632774Y-110707141D01*
X194439237Y-110733927D01*
X194427844Y-110681963D01*
X194392220Y-110553598D01*
X194341550Y-110415804D01*
X194282007Y-110283204D01*
X194219760Y-110170421D01*
X194198303Y-110138087D01*
X194161672Y-110086174D01*
X194305836Y-109986472D01*
X194373861Y-109939721D01*
X194430931Y-109901038D01*
X194467844Y-109876641D01*
X194474636Y-109872429D01*
X194498484Y-109880148D01*
G37*
G36*
X193310833Y-108711922D02*
G01*
X193353362Y-108743155D01*
X193406810Y-108786195D01*
X193462337Y-108832225D01*
X193539154Y-108895429D01*
X193627484Y-108967783D01*
X193717551Y-109041264D01*
X193725454Y-109047696D01*
X193940909Y-109223001D01*
X193808003Y-109371500D01*
X193741591Y-109444394D01*
X193695808Y-109490288D01*
X193665594Y-109512839D01*
X193645887Y-109515706D01*
X193631626Y-109502548D01*
X193630071Y-109500115D01*
X193611300Y-109481834D01*
X193566354Y-109442772D01*
X193500271Y-109387165D01*
X193418088Y-109319250D01*
X193324842Y-109243261D01*
X193318669Y-109238266D01*
X193019557Y-108996300D01*
X193072589Y-108933150D01*
X193157079Y-108834199D01*
X193222563Y-108761060D01*
X193267231Y-108715678D01*
X193289275Y-108700000D01*
X193289331Y-108700000D01*
X193310833Y-108711922D01*
G37*
G36*
X192314603Y-107430289D02*
G01*
X192320000Y-107444542D01*
X192330163Y-107482767D01*
X192357733Y-107546465D01*
X192398330Y-107627565D01*
X192447576Y-107717995D01*
X192501090Y-107809683D01*
X192554495Y-107894556D01*
X192598650Y-107958180D01*
X192643984Y-108023329D01*
X192675607Y-108076690D01*
X192689074Y-108110336D01*
X192687790Y-108117152D01*
X192647623Y-108150094D01*
X192591944Y-108195370D01*
X192530869Y-108244802D01*
X192474516Y-108290212D01*
X192433003Y-108323421D01*
X192419456Y-108334065D01*
X192401275Y-108340406D01*
X192378639Y-108329089D01*
X192346276Y-108295373D01*
X192298915Y-108234517D01*
X192279456Y-108208162D01*
X192186896Y-108072077D01*
X192097547Y-107922959D01*
X192019459Y-107775062D01*
X191961867Y-107645691D01*
X191921129Y-107541383D01*
X192085564Y-107489945D01*
X192164989Y-107465138D01*
X192232685Y-107444066D01*
X192277298Y-107430259D01*
X192285000Y-107427905D01*
X192314603Y-107430289D01*
G37*
G36*
X192732873Y-105974362D02*
G01*
X192776647Y-106042729D01*
X192817466Y-106105158D01*
X192843106Y-106143191D01*
X192880148Y-106196383D01*
X192754795Y-106285833D01*
X192601362Y-106412243D01*
X192470321Y-106554260D01*
X192403684Y-106647411D01*
X192348375Y-106734623D01*
X192174187Y-106647096D01*
X192099841Y-106607678D01*
X192041311Y-106572727D01*
X192006385Y-106547113D01*
X192000000Y-106538173D01*
X192012746Y-106502130D01*
X192047280Y-106444410D01*
X192098048Y-106372529D01*
X192159494Y-106294003D01*
X192226063Y-106216350D01*
X192280393Y-106158781D01*
X192357376Y-106086343D01*
X192443137Y-106013121D01*
X192521467Y-105952823D01*
X192535369Y-105943144D01*
X192659681Y-105858725D01*
X192732873Y-105974362D01*
G37*
G36*
X194246897Y-105317346D02*
G01*
X194258217Y-105353328D01*
X194276966Y-105420318D01*
X194300031Y-105499379D01*
X194309221Y-105530000D01*
X194330077Y-105603034D01*
X194337202Y-105647160D01*
X194329791Y-105671322D01*
X194307041Y-105684466D01*
X194295000Y-105688207D01*
X194248470Y-105700927D01*
X194176871Y-105719805D01*
X194087915Y-105742880D01*
X193989315Y-105768190D01*
X193888787Y-105793775D01*
X193794043Y-105817673D01*
X193712796Y-105837924D01*
X193652761Y-105852567D01*
X193621652Y-105859642D01*
X193619215Y-105860000D01*
X193608191Y-105842190D01*
X193589152Y-105794336D01*
X193565260Y-105724801D01*
X193550634Y-105678518D01*
X193527559Y-105595948D01*
X193513414Y-105529915D01*
X193509845Y-105488955D01*
X193512481Y-105480599D01*
X193536935Y-105470413D01*
X193593366Y-105452748D01*
X193674888Y-105429586D01*
X193774612Y-105402904D01*
X193850000Y-105383587D01*
X193959714Y-105355688D01*
X194057458Y-105330318D01*
X194135901Y-105309422D01*
X194187711Y-105294943D01*
X194203779Y-105289835D01*
X194228546Y-105289643D01*
X194246897Y-105317346D01*
G37*
G36*
X195870920Y-104289434D02*
G01*
X195917981Y-104313569D01*
X195988007Y-104351753D01*
X196075342Y-104400699D01*
X196174331Y-104457121D01*
X196279320Y-104517732D01*
X196384654Y-104579244D01*
X196484678Y-104638372D01*
X196573736Y-104691828D01*
X196646176Y-104736325D01*
X196696340Y-104768576D01*
X196718576Y-104785295D01*
X196719176Y-104786405D01*
X196710366Y-104807178D01*
X196685589Y-104857265D01*
X196647947Y-104930820D01*
X196600545Y-105021997D01*
X196546487Y-105124950D01*
X196488875Y-105233832D01*
X196430815Y-105342797D01*
X196375409Y-105445999D01*
X196325762Y-105537592D01*
X196284977Y-105611730D01*
X196256159Y-105662565D01*
X196242620Y-105684032D01*
X196220920Y-105680933D01*
X196172896Y-105661168D01*
X196106703Y-105628348D01*
X196061910Y-105604032D01*
X195989948Y-105562141D01*
X195933558Y-105526232D01*
X195900331Y-105501309D01*
X195894665Y-105493781D01*
X195903921Y-105471359D01*
X195928924Y-105420261D01*
X195966377Y-105346989D01*
X196012982Y-105258042D01*
X196039839Y-105207566D01*
X196089204Y-105114082D01*
X196130366Y-105033860D01*
X196160252Y-104973078D01*
X196175786Y-104937912D01*
X196177117Y-104931740D01*
X196158191Y-104920163D01*
X196110970Y-104892276D01*
X196041789Y-104851794D01*
X195956982Y-104802432D01*
X195920000Y-104780972D01*
X195830750Y-104729069D01*
X195754647Y-104684507D01*
X195698008Y-104651011D01*
X195667151Y-104632302D01*
X195663439Y-104629789D01*
X195670418Y-104611942D01*
X195692228Y-104568477D01*
X195723895Y-104508528D01*
X195760445Y-104441232D01*
X195796903Y-104375722D01*
X195828295Y-104321133D01*
X195849647Y-104286600D01*
X195852477Y-104282636D01*
X195870920Y-104289434D01*
G37*
G36*
X195510690Y-104944023D02*
G01*
X195520281Y-104966759D01*
X195537219Y-105018916D01*
X195558589Y-105091255D01*
X195569860Y-105131509D01*
X195593357Y-105223844D01*
X195603607Y-105283571D01*
X195601265Y-105315586D01*
X195595497Y-105322782D01*
X195564858Y-105335068D01*
X195508576Y-105352577D01*
X195451215Y-105368256D01*
X195372938Y-105388876D01*
X195274810Y-105415370D01*
X195175459Y-105442698D01*
X195155414Y-105448285D01*
X194980829Y-105497097D01*
X194940624Y-105362095D01*
X194910414Y-105257884D01*
X194892129Y-105185468D01*
X194885130Y-105138668D01*
X194888780Y-105111301D01*
X194902444Y-105097188D01*
X194912902Y-105093149D01*
X195014100Y-105064288D01*
X195121641Y-105034983D01*
X195228460Y-105006998D01*
X195327491Y-104982093D01*
X195411668Y-104962034D01*
X195473926Y-104948581D01*
X195507198Y-104943497D01*
X195510690Y-104944023D01*
G37*
D14*
%TO.C,D4*%
X162900000Y-113434000D02*
X162900000Y-116566000D01*
X162900000Y-113434000D02*
G75*
G02*
X162900000Y-116566000I2506124J-1566000D01*
G01*
D15*
X162300000Y-115000000D02*
G75*
G02*
X162100000Y-115000000I-100000J0D01*
G01*
X162100000Y-115000000D02*
G75*
G02*
X162300000Y-115000000I100000J0D01*
G01*
D16*
%TO.C,R3*%
X149680000Y-116920000D02*
X149680000Y-113080000D01*
X151520000Y-116920000D02*
X151520000Y-113080000D01*
%TO.C,SW2*%
X122975000Y-122095000D02*
X136945000Y-122095000D01*
X122975000Y-136065000D02*
X122975000Y-122095000D01*
X136945000Y-122095000D02*
X136945000Y-136065000D01*
X136945000Y-136065000D02*
X122975000Y-136065000D01*
%TO.C,R5*%
X188680000Y-116920000D02*
X188680000Y-113080000D01*
X190520000Y-116920000D02*
X190520000Y-113080000D01*
D14*
%TO.C,D2*%
X125630000Y-113434000D02*
X125630000Y-116566000D01*
X125630000Y-113434000D02*
G75*
G02*
X125630000Y-116566000I2506124J-1566000D01*
G01*
D15*
X125030000Y-115000000D02*
G75*
G02*
X124830000Y-115000000I-100000J0D01*
G01*
X124830000Y-115000000D02*
G75*
G02*
X125030000Y-115000000I100000J0D01*
G01*
D16*
%TO.C,SW1*%
X103715000Y-122115000D02*
X117685000Y-122115000D01*
X103715000Y-136085000D02*
X103715000Y-122115000D01*
X117685000Y-122115000D02*
X117685000Y-136085000D01*
X117685000Y-136085000D02*
X103715000Y-136085000D01*
%TO.C,SW4*%
X161525000Y-122115000D02*
X175495000Y-122115000D01*
X161525000Y-136085000D02*
X161525000Y-122115000D01*
X175495000Y-122115000D02*
X175495000Y-136085000D01*
X175495000Y-136085000D02*
X161525000Y-136085000D01*
D14*
%TO.C,D3*%
X143130000Y-113434000D02*
X143130000Y-116566000D01*
X143130000Y-113434000D02*
G75*
G02*
X143130000Y-116566000I2506124J-1566000D01*
G01*
D15*
X142530000Y-115000000D02*
G75*
G02*
X142330000Y-115000000I-100000J0D01*
G01*
X142330000Y-115000000D02*
G75*
G02*
X142530000Y-115000000I100000J0D01*
G01*
D16*
%TO.C,R2*%
X132680000Y-116920000D02*
X132680000Y-113080000D01*
X134520000Y-116920000D02*
X134520000Y-113080000D01*
D14*
%TO.C,D5*%
X181130000Y-113434000D02*
X181130000Y-116566000D01*
X181130000Y-113434000D02*
G75*
G02*
X181130000Y-116566000I2506124J-1566000D01*
G01*
D15*
X180530000Y-115000000D02*
G75*
G02*
X180330000Y-115000000I-100000J0D01*
G01*
X180330000Y-115000000D02*
G75*
G02*
X180530000Y-115000000I100000J0D01*
G01*
D16*
%TO.C,SW5*%
X180795000Y-122115000D02*
X194765000Y-122115000D01*
X180795000Y-136085000D02*
X180795000Y-122115000D01*
X194765000Y-122115000D02*
X194765000Y-136085000D01*
X194765000Y-136085000D02*
X180795000Y-136085000D01*
%TO.C,R1*%
X113380000Y-113280000D02*
X113380000Y-117120000D01*
X115220000Y-113280000D02*
X115220000Y-117120000D01*
D14*
%TO.C,U1*%
X99349000Y-103891272D02*
X99349000Y-95896000D01*
X99849000Y-95396000D02*
X100759000Y-95396000D01*
D10*
X100759000Y-92915000D02*
X100759000Y-106885000D01*
D14*
X100759000Y-92915000D02*
X100759000Y-106885000D01*
X100759000Y-104395000D02*
X99848728Y-104391272D01*
X119809000Y-91010000D02*
X102664000Y-91010000D01*
X119809000Y-108790000D02*
X102664000Y-108790000D01*
X121714000Y-106885000D02*
X121714000Y-92915000D01*
X99349000Y-95896000D02*
G75*
G02*
X99849000Y-95396000I500000J0D01*
G01*
X99848728Y-104391272D02*
G75*
G02*
X99349001Y-103891272I291J500018D01*
G01*
X100759000Y-92915000D02*
G75*
G02*
X102664000Y-91010000I1905000J0D01*
G01*
X102664000Y-108790000D02*
G75*
G02*
X100759000Y-106885000I1J1905001D01*
G01*
X119809000Y-91010000D02*
G75*
G02*
X121714000Y-92915000I0J-1905000D01*
G01*
X121714000Y-106885000D02*
G75*
G02*
X119809000Y-108790000I-1905001J1D01*
G01*
D17*
X101252000Y-108850000D02*
G75*
G02*
X100748000Y-108850000I-252000J0D01*
G01*
X100748000Y-108850000D02*
G75*
G02*
X101252000Y-108850000I252000J0D01*
G01*
X102132000Y-107707000D02*
G75*
G02*
X101628000Y-107707000I-252000J0D01*
G01*
X101628000Y-107707000D02*
G75*
G02*
X102132000Y-107707000I252000J0D01*
G01*
D14*
%TO.C,D1*%
X107130000Y-113434000D02*
X107130000Y-116566000D01*
X107130000Y-113434000D02*
G75*
G02*
X107130000Y-116566000I2506124J-1566000D01*
G01*
D15*
X106530000Y-115000000D02*
G75*
G02*
X106330000Y-115000000I-100000J0D01*
G01*
X106330000Y-115000000D02*
G75*
G02*
X106530000Y-115000000I100000J0D01*
G01*
D16*
%TO.C,SW3*%
X142275000Y-122095000D02*
X156245000Y-122095000D01*
X142275000Y-136065000D02*
X142275000Y-122095000D01*
X156245000Y-122095000D02*
X156245000Y-136065000D01*
X156245000Y-136065000D02*
X142275000Y-136065000D01*
%TO.C,R4*%
X169680000Y-116920000D02*
X169680000Y-113080000D01*
X171520000Y-116920000D02*
X171520000Y-113080000D01*
%TD*%
M02*
